<svg width="50" height="50" viewBox="0 0 50 50" fill="none" xmlns="http://www.w3.org/2000/svg">
<g id="Frame 118">
<circle id="Ellipse 17" cx="25" cy="25" r="25" fill="#81693C"/>
<path id="Arrow 3" d="M12 24.5C11.7239 24.5 11.5 24.7239 11.5 25C11.5 25.2761 11.7239 25.5 12 25.5V24.5ZM37.3536 25.3536C37.5488 25.1583 37.5488 24.8417 37.3536 24.6464L34.1716 21.4645C33.9763 21.2692 33.6597 21.2692 33.4645 21.4645C33.2692 21.6597 33.2692 21.9763 33.4645 22.1716L36.2929 25L33.4645 27.8284C33.2692 28.0237 33.2692 28.3403 33.4645 28.5355C33.6597 28.7308 33.9763 28.7308 34.1716 28.5355L37.3536 25.3536ZM12 25.5H37V24.5H12V25.5Z" fill="#FAF7EF"/>
</g>
</svg>
