<svg width="200" height="200" viewBox="0 0 200 200" fill="none" xmlns="http://www.w3.org/2000/svg">
<g id="Frame 70">
<circle id="Ellipse 16" cx="100" cy="100" r="99" fill="#E3DDD3" fill-opacity="0.4" stroke="#81693C" stroke-width="2"/>
<path id="Polygon 2" d="M128 100L85.25 135.507L85.25 64.493L128 100Z" fill="#81693C"/>
<g id="Vector">
<path d="M51.5895 40.9547L43.786 29.6639L52.3579 23.823L60.1614 35.1139L59.042 35.8767L51.9199 25.5717L45.5869 29.887L52.709 40.1919L51.5895 40.9547Z" fill="#30291B"/>
<path d="M67.6432 31.5056C66.7597 31.9028 65.8784 32.0873 64.9994 32.059C64.1204 32.0307 63.2854 31.8345 62.4944 31.4702C61.6981 31.0943 60.9875 30.5952 60.3625 29.9728C59.7323 29.3387 59.2354 28.6236 58.8718 27.8273C58.4922 26.9958 58.2785 26.1392 58.2308 25.2573C58.1778 24.3638 58.2827 23.5051 58.5454 22.6813C58.8146 21.8405 59.231 21.0887 59.7945 20.4261C60.3527 19.7518 61.05 19.2266 61.8864 18.8506C62.7699 18.4534 63.6538 18.2748 64.5382 18.3148C65.4225 18.3548 66.2569 18.5654 67.0415 18.9466C67.8379 19.3225 68.5485 19.8217 69.1734 20.444C69.7983 21.0664 70.2899 21.7699 70.6481 22.5545C71.0277 23.3859 71.2441 24.2484 71.2971 25.1419C71.3448 26.0238 71.2399 26.8825 70.9825 27.718C70.7197 28.5418 70.3066 29.2851 69.743 29.9477C69.1795 30.6103 68.4796 31.1296 67.6432 31.5056ZM60.1087 27.2712C60.4188 27.9504 60.8301 28.5559 61.3427 29.0876C61.8499 29.6076 62.4219 30.0209 63.0588 30.3274C63.6903 30.6222 64.3556 30.7888 65.0547 30.8274C65.7603 30.849 66.4547 30.7062 67.1379 30.399C67.8565 30.076 68.4317 29.641 68.8634 29.094C69.3017 28.5301 69.6087 27.9122 69.7847 27.2403C69.9671 26.5514 70.0226 25.849 69.9513 25.133C69.88 24.417 69.6973 23.737 69.4032 23.0929C69.0931 22.4137 68.6844 21.8141 68.1772 21.2941C67.67 20.7741 67.0921 20.3635 66.4435 20.0623C65.8066 19.7558 65.1413 19.5891 64.4475 19.5623C63.7538 19.5354 63.0653 19.6756 62.382 19.9827C61.6752 20.3005 61.1 20.7355 60.6565 21.2877C60.2247 21.8346 59.9176 22.4526 59.7352 23.1415C59.5593 23.8133 59.501 24.5099 59.5606 25.2312C59.6319 25.9471 59.8146 26.6272 60.1087 27.2712Z" fill="#30291B"/>
<path d="M72.8444 21.6902C72.6338 20.8811 72.5658 20.0556 72.6405 19.2134C72.7244 18.3556 72.953 17.5405 73.3263 16.768C73.6964 15.9831 74.2273 15.3031 74.9192 14.728C75.6077 14.1404 76.453 13.7186 77.455 13.4624C78.6448 13.1583 79.7305 13.1727 80.7122 13.5059C81.7032 13.8234 82.5093 14.3541 83.1304 15.098L82.2623 15.9969C81.822 15.4856 81.3389 15.1179 80.8131 14.8939C80.284 14.6574 79.7495 14.5286 79.2097 14.5073C78.6823 14.4828 78.1745 14.533 77.686 14.6579C76.8844 14.8628 76.2189 15.2055 75.6895 15.686C75.1568 16.154 74.7472 16.7101 74.4607 17.3542C74.1835 17.9826 74.0243 18.6539 73.9831 19.368C73.9386 20.0697 74.0039 20.7566 74.1789 21.4287C74.37 22.163 74.6784 22.8343 75.1038 23.4424C75.5293 24.0504 76.0355 24.5582 76.6224 24.9657C77.2061 25.3608 77.8391 25.6371 78.5213 25.7946C79.2127 25.9364 79.9154 25.9161 80.6293 25.7335C81.1302 25.6055 81.6211 25.3871 82.1017 25.0783C82.5824 24.7696 83.0012 24.3771 83.3581 23.9009C83.7275 23.4215 83.9755 22.8603 84.102 22.2173L85.3374 22.4988C85.2336 23.229 84.9536 23.8979 84.4973 24.5057C84.0411 25.1136 83.4868 25.627 82.8345 26.0459C82.1947 26.4617 81.5366 26.7561 80.8603 26.929C79.946 27.1627 79.0567 27.1843 78.1923 26.9938C77.3246 26.7908 76.5247 26.4377 75.7926 25.9346C75.0698 25.4158 74.4528 24.7903 73.9417 24.0581C73.4272 23.3134 73.0615 22.5241 72.8444 21.6902Z" fill="#30291B"/>
<path d="M99.4605 24.3642L98.689 13.2469L94.313 22.2171L93.4612 22.2743L87.8672 13.9735L88.6388 25.0908L87.2837 25.1818L86.3359 11.5255L87.7298 11.432L93.741 20.4197L98.4934 10.7093L99.8679 10.617L100.816 24.2733L99.4605 24.3642Z" fill="#30291B"/>
<path d="M109.104 25.2163C108.142 25.0957 107.293 24.7951 106.558 24.3145C105.823 23.8338 105.213 23.233 104.73 22.5119C104.249 21.7781 103.905 20.9839 103.699 20.1292C103.495 19.2618 103.448 18.3946 103.557 17.5275C103.67 16.6222 103.939 15.7816 104.362 15.0057C104.787 14.2171 105.329 13.5402 105.986 12.975C106.659 12.3987 107.409 11.9747 108.239 11.703C109.07 11.4186 109.941 11.3334 110.853 11.4476C111.816 11.5682 112.664 11.8752 113.397 12.3686C114.131 12.8619 114.732 13.4747 115.2 14.2069C115.682 14.9407 116.026 15.735 116.231 16.5896C116.437 17.4443 116.486 18.2988 116.379 19.1531C116.265 20.0584 115.996 20.9054 115.571 21.694C115.147 22.4699 114.606 23.1468 113.947 23.7247C113.289 24.2899 112.545 24.7083 111.716 24.98C110.886 25.2517 110.016 25.3305 109.104 25.2163ZM104.905 17.6964C104.812 18.4359 104.844 19.1653 105.002 19.8844C105.161 20.5907 105.431 21.2398 105.813 21.8316C106.197 22.4107 106.677 22.8982 107.253 23.2942C107.844 23.679 108.511 23.9181 109.256 24.0113C110.039 24.1094 110.758 24.0377 111.415 23.7961C112.085 23.5433 112.672 23.1765 113.176 22.6957C113.694 22.2037 114.111 21.6342 114.427 20.9874C114.743 20.3405 114.945 19.6664 115.033 18.9651C115.126 18.2256 115.093 17.5026 114.934 16.7962C114.775 16.0899 114.498 15.44 114.103 14.8466C113.721 14.2547 113.241 13.7672 112.663 13.384C112.086 13.0008 111.424 12.7626 110.68 12.6693C109.91 12.5728 109.19 12.6446 108.521 12.8845C107.865 13.1261 107.277 13.4929 106.759 13.9849C106.256 14.4658 105.839 15.0289 105.511 15.6741C105.195 16.321 104.993 16.9951 104.905 17.6964Z" fill="#30291B"/>
<path d="M130.447 17.272L125.735 15.8973L122.207 27.8829L120.903 27.5025L124.431 15.5169L119.719 14.1421L120.056 12.9953L130.785 16.1253L130.447 17.272Z" fill="#30291B"/>
<path d="M127.837 29.6985L133.555 17.2534L138.746 19.6128C139.287 19.8589 139.73 20.1946 140.076 20.62C140.433 21.0506 140.687 21.5337 140.84 22.0691C140.997 22.5929 141.063 23.1312 141.037 23.6843C141.015 24.2256 140.895 24.7358 140.675 25.2149C140.363 25.8927 139.915 26.4658 139.33 26.9344C138.762 27.3966 138.121 27.6916 137.408 27.8194C136.695 27.9473 135.973 27.8453 135.243 27.5136L131.183 25.6678L129.073 30.2602L127.837 29.6985ZM131.682 24.5811L135.69 26.4028C136.184 26.6275 136.675 26.6884 137.164 26.5855C137.652 26.4826 138.096 26.2604 138.494 25.919C138.893 25.5776 139.208 25.1556 139.439 24.6532C139.675 24.139 139.775 23.6122 139.738 23.0729C139.701 22.5335 139.545 22.0528 139.27 21.6309C139.011 21.2026 138.652 20.8841 138.193 20.6755L134.292 18.9019L131.682 24.5811Z" fill="#30291B"/>
<path d="M138.312 34.5927L146.052 23.2798L147.159 24.0285L140.466 33.8118L154.223 28.8033L155.267 29.5086L147.527 40.8216L146.419 40.0728L152.992 30.4648L139.436 35.3523L138.312 34.5927Z" fill="#30291B"/>
</g>
<g id="Vector_2">
<path d="M38 164.521L46.3583 155.284L53.37 161.559L45.0117 170.796L44.096 169.976L51.7244 161.546L46.5442 156.91L38.9157 165.34L38 164.521Z" fill="#30291B"/>
<path d="M48.7653 173.612L55.5282 163.163L59.8788 165.948C60.3326 166.238 60.6866 166.597 60.9409 167.023C61.205 167.456 61.3703 167.923 61.437 168.423C61.51 168.914 61.4985 169.406 61.4023 169.9C61.3125 170.383 61.1374 170.826 60.8771 171.228C60.5088 171.797 60.0313 172.255 59.4446 172.601C58.8741 172.943 58.2603 173.126 57.6033 173.15C56.9463 173.173 56.312 172.989 55.7003 172.598L52.2967 170.419L49.8011 174.275L48.7653 173.612ZM52.8873 169.507L56.2465 171.657C56.6608 171.922 57.0939 172.04 57.5458 172.01C57.9977 171.98 58.425 171.837 58.8276 171.582C59.2303 171.326 59.5682 170.987 59.8412 170.565C60.1206 170.134 60.2791 169.673 60.3168 169.184C60.3544 168.694 60.2772 168.243 60.085 167.828C59.909 167.41 59.6286 167.078 59.2438 166.832L55.9735 164.738L52.8873 169.507Z" fill="#30291B"/>
<path d="M64.0695 182.213C63.2611 181.868 62.5978 181.393 62.0794 180.791C61.561 180.188 61.1829 179.512 60.945 178.762C60.7118 178.002 60.6142 177.224 60.6522 176.427C60.6948 175.62 60.8737 174.852 61.1889 174.123C61.5181 173.362 61.9657 172.696 62.5318 172.125C63.1025 171.544 63.7463 171.089 64.463 170.76C65.1952 170.425 65.9573 170.243 66.7491 170.214C67.5456 170.173 68.3265 170.317 69.0918 170.644C69.9001 170.99 70.5612 171.469 71.0749 172.083C71.5887 172.696 71.9568 173.381 72.1792 174.136C72.4124 174.897 72.51 175.675 72.472 176.472C72.434 177.268 72.2597 178.026 71.9492 178.744C71.6201 179.505 71.1702 180.176 70.5994 180.758C70.0333 181.328 69.3895 181.783 68.6681 182.123C67.9514 182.451 67.197 182.63 66.4052 182.66C65.6133 182.689 64.8347 182.541 64.0695 182.213ZM62.3206 174.607C62.0518 175.228 61.8946 175.872 61.8491 176.539C61.8082 177.194 61.879 177.828 62.0616 178.44C62.2487 179.04 62.5431 179.585 62.9445 180.075C63.3614 180.558 63.8824 180.933 64.5075 181.2C65.165 181.482 65.8103 181.599 66.4435 181.552C67.0922 181.499 67.6971 181.326 68.2582 181.033C68.8347 180.733 69.3429 180.341 69.7825 179.856C70.2222 179.371 70.5695 178.833 70.8244 178.244C71.0933 177.622 71.2482 176.983 71.289 176.328C71.3299 175.672 71.2537 175.036 71.0604 174.42C70.8778 173.809 70.5835 173.264 70.1774 172.785C69.7713 172.306 69.2557 171.934 68.6306 171.666C67.9839 171.39 67.3386 171.272 66.6946 171.314C66.0614 171.361 65.4565 171.534 64.8799 171.834C64.3188 172.127 63.813 172.514 63.3626 172.995C62.9229 173.48 62.5756 174.017 62.3206 174.607Z" fill="#30291B"/>
<path d="M84.3247 188.075L86.4498 178.182L80.3759 184.928L79.6187 184.767L76.8292 176.138L74.7041 186.031L73.4994 185.775L76.1098 173.623L77.3489 173.886L80.3294 183.217L86.9179 175.919L88.1398 176.179L85.5294 188.331L84.3247 188.075Z" fill="#30291B"/>
<path d="M95.5904 188.999C94.7106 188.984 93.916 188.795 93.2066 188.433C92.4972 188.07 91.8896 187.587 91.3839 186.983C90.8784 186.367 90.4915 185.684 90.223 184.932C89.9548 184.169 89.8277 183.391 89.8416 182.598C89.8562 181.769 90.0166 180.984 90.323 180.243C90.6296 179.49 91.052 178.826 91.5901 178.252C92.1402 177.666 92.7759 177.211 93.4975 176.885C94.2192 176.547 94.9965 176.386 95.8293 176.4C96.7092 176.415 97.5037 176.61 98.2129 176.984C98.9221 177.358 99.5236 177.853 100.017 178.468C100.523 179.084 100.91 179.767 101.178 180.519C101.447 181.271 101.574 182.037 101.56 182.819C101.546 183.647 101.385 184.438 101.079 185.191C100.772 185.932 100.35 186.596 99.8115 187.182C99.2733 187.756 98.6435 188.206 97.922 188.532C97.2005 188.858 96.4233 189.014 95.5904 188.999ZM91.0733 182.619C91.0615 183.296 91.1614 183.951 91.3732 184.585C91.5852 185.207 91.8922 185.767 92.2942 186.264C92.6964 186.749 93.1764 187.143 93.7344 187.444C94.3043 187.734 94.9294 187.885 95.6098 187.897C96.3253 187.909 96.9672 187.774 97.5354 187.492C98.1156 187.199 98.6093 186.811 99.0168 186.328C99.4362 185.833 99.7569 185.279 99.9789 184.664C100.201 184.05 100.318 183.421 100.329 182.78C100.341 182.103 100.241 181.454 100.029 180.832C99.8166 180.209 99.5037 179.65 99.0901 179.152C98.6881 178.655 98.208 178.262 97.6499 177.972C97.0917 177.682 96.4725 177.532 95.7921 177.52C95.0882 177.507 94.4464 177.642 93.8664 177.924C93.2982 178.206 92.8044 178.594 92.3851 179.088C91.9776 179.571 91.657 180.12 91.4233 180.735C91.2013 181.349 91.0846 181.977 91.0733 182.619Z" fill="#30291B"/>
<path d="M105.496 188.613L103.628 176.327L108.744 175.558C109.277 175.477 109.781 175.514 110.255 175.667C110.741 175.818 111.175 176.059 111.558 176.391C111.939 176.712 112.257 177.088 112.513 177.522C112.767 177.944 112.93 178.392 113.002 178.865C113.104 179.534 113.049 180.191 112.839 180.836C112.638 181.468 112.299 182.009 111.822 182.458C111.344 182.908 110.746 183.186 110.027 183.295L106.024 183.896L106.714 188.43L105.496 188.613ZM105.861 182.823L109.811 182.23C110.299 182.156 110.702 181.96 111.021 181.641C111.34 181.321 111.566 180.933 111.698 180.477C111.831 180.02 111.859 179.544 111.784 179.048C111.707 178.54 111.52 178.09 111.223 177.698C110.926 177.306 110.567 177.018 110.148 176.833C109.738 176.635 109.307 176.57 108.854 176.638L105.009 177.217L105.861 182.823Z" fill="#30291B"/>
<path d="M122.651 185.039C121.813 185.308 121 185.385 120.211 185.27C119.422 185.156 118.689 184.894 118.014 184.485C117.336 184.066 116.747 183.544 116.249 182.919C115.746 182.283 115.373 181.588 115.128 180.833C114.872 180.044 114.768 179.25 114.817 178.45C114.862 177.638 115.045 176.875 115.367 176.158C115.697 175.427 116.151 174.791 116.727 174.25C117.3 173.699 117.983 173.296 118.776 173.041C119.613 172.772 120.428 172.701 121.221 172.826C122.014 172.952 122.744 173.227 123.411 173.65C124.09 174.07 124.679 174.592 125.177 175.216C125.676 175.841 126.046 176.525 126.287 177.269C126.543 178.058 126.649 178.858 126.604 179.669C126.555 180.469 126.372 181.233 126.053 181.961C125.731 182.677 125.281 183.306 124.705 183.846C124.128 184.387 123.443 184.784 122.651 185.039ZM116.3 180.456C116.509 181.1 116.817 181.688 117.224 182.22C117.627 182.74 118.099 183.171 118.642 183.512C119.18 183.842 119.762 184.059 120.388 184.165C121.022 184.256 121.663 184.197 122.31 183.989C122.991 183.771 123.555 183.437 124.001 182.987C124.454 182.523 124.795 181.997 125.023 181.408C125.259 180.805 125.382 180.178 125.392 179.525C125.402 178.872 125.308 178.24 125.11 177.629C124.901 176.985 124.594 176.403 124.191 175.882C123.788 175.362 123.31 174.933 122.757 174.596C122.215 174.255 121.632 174.037 121.01 173.943C120.387 173.848 119.752 173.905 119.105 174.113C118.435 174.328 117.871 174.662 117.414 175.115C116.969 175.565 116.628 176.091 116.392 176.694C116.164 177.282 116.039 177.904 116.018 178.561C116.008 179.214 116.102 179.846 116.3 180.456Z" fill="#30291B"/>
<path d="M139.366 177.56L134.013 167.546L129.506 169.928L130.683 172.279C131.441 173.821 132.004 175.136 132.373 176.223C132.741 177.31 132.929 178.221 132.937 178.957C132.94 179.682 132.789 180.284 132.486 180.761C132.178 181.228 131.723 181.62 131.123 181.938L130.61 180.98C131.014 180.766 131.317 180.474 131.517 180.104C131.718 179.733 131.789 179.233 131.732 178.603C131.674 177.973 131.465 177.172 131.104 176.199C130.749 175.211 130.218 174.006 129.51 172.582L127.984 169.504L134.573 166.021L140.438 176.993L139.366 177.56Z" fill="#30291B"/>
<path d="M144.287 174.511L136.582 164.729L137.538 163.984L144.201 172.444L143.634 159.236L144.534 158.534L152.24 168.317L151.284 169.061L144.74 160.753L145.257 173.756L144.287 174.511Z" fill="#30291B"/>
<path d="M155.838 164.868L146.615 156.485L147.446 155.581L151.551 159.312L152.821 157.93L151.613 151.046L152.575 150L153.874 157.511L162 158.164L160.979 159.275L153.676 158.66L152.382 160.068L156.669 163.964L155.838 164.868Z" fill="#30291B"/>
</g>
</g>
</svg>
