<svg width="303" height="303" viewBox="0 0 303 303" fill="none" xmlns="http://www.w3.org/2000/svg">
<path d="M275.914 151.086C275.914 220.122 219.949 276.086 150.914 276.086C81.878 276.086 25.9136 220.122 25.9136 151.086C25.9136 82.0508 81.878 26.0864 150.914 26.0864C219.949 26.0864 275.914 82.0508 275.914 151.086Z" fill="#81693C"/>
<g clip-path="url(#clip0_1_292)">
<path d="M136.373 79.6185C127.087 77.1301 117.507 82.6609 115.018 91.9478C113.162 98.8742 115.675 106.124 121.416 110.42L131.039 117.619L183.958 131.798L195.891 130.375C203.011 129.526 208.812 124.503 210.668 117.577C213.156 108.29 207.625 98.7103 198.338 96.2219C191.412 94.366 184.162 96.8784 179.867 102.62L170.327 115.372C167.984 112.876 164.984 110.942 161.441 109.993C157.899 109.044 154.334 109.219 151.057 110.208L149.171 94.3952C148.322 87.2752 143.3 81.4744 136.373 79.6185ZM141.914 116.24L125.978 104.318C122.744 101.9 121.331 97.8207 122.376 93.9192C123.778 88.6884 129.171 85.5745 134.402 86.9761C138.303 88.0215 141.129 91.2853 141.607 95.2948L143.861 114.191C143.158 114.815 142.521 115.513 141.914 116.24ZM185.968 107.181C188.386 103.948 192.465 102.534 196.367 103.58C201.598 104.981 204.712 110.375 203.31 115.605C202.265 119.507 199.001 122.333 194.991 122.81L175.23 125.167C175.067 124.234 174.865 123.311 174.568 122.419L185.968 107.181ZM99.359 120.959L95.3503 135.919C94.8055 137.953 96.01 140.039 98.0434 140.584L131.153 149.456L137.133 127.137L104.024 118.266C101.99 117.721 99.9039 118.925 99.359 120.959ZM207.03 145.866L173.921 136.995L167.941 159.313L201.05 168.185C203.084 168.729 205.17 167.525 205.715 165.491L209.724 150.531C210.268 148.497 209.064 146.411 207.03 145.866ZM86.8705 196.997C86.3256 199.031 87.5302 201.117 89.5636 201.662L115.315 208.562L129.181 156.813L99.7508 148.927L86.8705 196.997ZM152.103 218.419L177.855 225.319C179.889 225.864 181.975 224.66 182.52 222.626L195.4 174.556L165.97 166.671L152.103 218.419ZM144.491 129.109L166.563 135.023L144.746 216.448L122.673 210.533L144.491 129.109Z" fill="#FAF7EF"/>
</g>
<path d="M158.71 24.5728C157.612 24.5049 156.63 24.2238 155.764 23.7295C154.898 23.2351 154.166 22.5947 153.568 21.8084C152.971 21.0073 152.526 20.1275 152.233 19.1689C151.94 18.1957 151.825 17.2114 151.886 16.2159C151.95 15.1766 152.194 14.1998 152.618 13.2855C153.043 12.3566 153.607 11.5466 154.311 10.8553C155.031 10.1504 155.85 9.61324 156.77 9.24391C157.69 8.85994 158.669 8.70008 159.709 8.76432C160.807 8.83218 161.788 9.12061 162.653 9.62961C163.518 10.1386 164.241 10.7932 164.824 11.5933C165.421 12.3943 165.866 13.2741 166.16 14.2327C166.453 15.1913 166.569 16.161 166.509 17.1418C166.445 18.1811 166.2 19.1653 165.775 20.0942C165.351 21.0084 164.787 21.8185 164.082 22.5243C163.378 23.2156 162.567 23.7458 161.647 24.1152C160.728 24.4845 159.749 24.637 158.71 24.5728ZM153.423 16.3109C153.371 17.16 153.459 17.9883 153.688 18.796C153.919 19.5891 154.271 20.3088 154.745 20.9553C155.22 21.5872 155.798 22.1078 156.478 22.5172C157.174 22.9129 157.946 23.137 158.795 23.1894C159.688 23.2446 160.497 23.111 161.222 22.7884C161.963 22.4522 162.601 21.992 163.137 21.4079C163.688 20.8101 164.12 20.1314 164.431 19.3719C164.743 18.6123 164.923 17.83 164.973 17.0248C165.026 16.1758 164.937 15.3547 164.707 14.5617C164.476 13.7687 164.117 13.0484 163.628 12.401C163.153 11.7545 162.576 11.2339 161.895 10.8391C161.214 10.4444 160.449 10.2208 159.6 10.1683C158.722 10.114 157.912 10.2477 157.173 10.5693C156.447 10.8918 155.809 11.352 155.258 11.9498C154.722 12.5339 154.291 13.2052 153.965 13.9639C153.654 14.7234 153.473 15.5058 153.423 16.3109Z" fill="#30291B"/>
<path d="M158.709 24.573C157.611 24.5052 156.63 24.2241 155.764 23.7297C154.898 23.2354 154.166 22.595 153.568 21.8086C152.971 21.0076 152.526 20.1278 152.232 19.1692C151.94 18.1959 151.824 17.2116 151.886 16.2162C151.95 15.1768 152.194 14.2 152.618 13.2858C153.043 12.3569 153.607 11.5468 154.311 10.8556C155.031 10.1506 155.85 9.61348 156.769 9.24415C157.689 8.86019 158.669 8.70032 159.708 8.76457C160.806 8.83243 161.788 9.12086 162.653 9.62985C163.518 10.1388 164.241 10.7934 164.824 11.5935C165.421 12.3946 165.866 13.2744 166.159 14.233C166.453 15.1916 166.569 16.1612 166.509 17.142C166.444 18.1814 166.2 19.1655 165.775 20.0944C165.351 21.0087 164.787 21.8187 164.082 22.5246C163.378 23.2158 162.566 23.7461 161.647 24.1154C160.728 24.4847 159.749 24.6373 158.709 24.573ZM153.423 16.3112C153.37 17.1602 153.459 17.9886 153.688 18.7963C153.918 19.5893 154.271 20.3091 154.745 20.9556C155.22 21.5874 155.798 22.1081 156.478 22.5175C157.173 22.9131 157.946 23.1372 158.795 23.1897C159.688 23.2449 160.497 23.1112 161.222 22.7887C161.963 22.4524 162.601 21.9922 163.137 21.4082C163.688 20.8104 164.12 20.1317 164.431 19.3721C164.742 18.6126 164.923 17.8302 164.973 17.0251C165.025 16.176 164.936 15.355 164.706 14.5619C164.476 13.7689 164.117 13.0487 163.628 12.4013C163.153 11.7548 162.576 11.2342 161.895 10.8394C161.214 10.4446 160.449 10.221 159.6 10.1685C158.721 10.1142 157.912 10.2479 157.172 10.5695C156.447 10.8921 155.809 11.3522 155.257 11.95C154.722 12.5341 154.291 13.2055 153.965 13.9641C153.653 14.7237 153.473 15.506 153.423 16.3112Z" fill="#30291B"/>
<path d="M158.71 24.5728C157.612 24.5049 156.63 24.2238 155.764 23.7295C154.898 23.2351 154.166 22.5947 153.568 21.8084C152.971 21.0073 152.526 20.1275 152.233 19.1689C151.94 18.1957 151.825 17.2114 151.886 16.2159C151.95 15.1766 152.194 14.1998 152.618 13.2855C153.043 12.3566 153.607 11.5466 154.311 10.8553C155.031 10.1504 155.85 9.61324 156.77 9.24391C157.69 8.85994 158.669 8.70008 159.709 8.76432C160.807 8.83218 161.788 9.12061 162.653 9.62961C163.518 10.1386 164.241 10.7932 164.824 11.5933C165.421 12.3943 165.866 13.2741 166.16 14.2327C166.453 15.1913 166.569 16.161 166.509 17.1418C166.445 18.1811 166.2 19.1653 165.775 20.0942C165.351 21.0084 164.787 21.8185 164.082 22.5243C163.378 23.2156 162.567 23.7458 161.647 24.1152C160.728 24.4845 159.749 24.637 158.71 24.5728ZM153.423 16.3109C153.371 17.16 153.459 17.9883 153.688 18.796C153.919 19.5891 154.271 20.3088 154.745 20.9553C155.22 21.5872 155.798 22.1078 156.478 22.5172C157.174 22.9129 157.946 23.137 158.795 23.1894C159.688 23.2446 160.497 23.111 161.222 22.7884C161.963 22.4522 162.601 21.992 163.137 21.4079C163.688 20.8101 164.12 20.1314 164.431 19.3719C164.743 18.6123 164.923 17.83 164.973 17.0248C165.026 16.1758 164.937 15.3547 164.707 14.5617C164.476 13.7687 164.117 13.0484 163.628 12.401C163.153 11.7545 162.576 11.2339 161.895 10.8391C161.214 10.4444 160.449 10.2208 159.6 10.1683C158.722 10.114 157.912 10.2477 157.173 10.5693C156.447 10.8918 155.809 11.352 155.258 11.9498C154.722 12.5339 154.291 13.2052 153.965 13.9639C153.654 14.7234 153.473 15.5058 153.423 16.3109Z" fill="#30291B"/>
<path d="M168.536 17.2591C168.708 16.3214 169.034 15.4342 169.515 14.5977C170.013 13.7495 170.639 13.0141 171.394 12.3918C172.152 11.755 173.025 11.3032 174.013 11.0366C175.003 10.7555 176.076 10.7205 177.23 10.9315C178.601 11.182 179.711 11.7131 180.562 12.5246C181.43 13.3244 182.005 14.257 182.287 15.3225L180.962 15.8407C180.754 15.1019 180.433 14.4916 180 14.0097C179.569 13.5135 179.08 13.126 178.535 12.8473C178.004 12.5714 177.457 12.3819 176.894 12.279C175.971 12.1102 175.121 12.1488 174.346 12.3946C173.573 12.6261 172.885 13.0071 172.281 13.5379C171.694 14.0568 171.208 14.6761 170.823 15.3959C170.44 16.1013 170.178 16.8436 170.035 17.6227C169.88 18.4739 169.875 19.3154 170.021 20.1473C170.167 20.9791 170.445 21.7455 170.853 22.4464C171.265 23.1329 171.783 23.7198 172.41 24.2071C173.054 24.6826 173.787 24.9955 174.609 25.1459C175.186 25.2514 175.796 25.2585 176.439 25.1673C177.082 25.0761 177.701 24.8688 178.297 24.5453C178.907 24.2245 179.432 23.7613 179.871 23.1557L181.007 24.0344C180.55 24.741 179.941 25.3006 179.18 25.7131C178.418 26.1256 177.601 26.3937 176.729 26.5175C175.871 26.6439 175.052 26.6359 174.273 26.4934C173.22 26.3009 172.294 25.9005 171.496 25.2924C170.7 24.6698 170.046 23.924 169.534 23.0551C169.039 22.1744 168.704 21.2335 168.53 20.2324C168.357 19.2169 168.36 18.2258 168.536 17.2591Z" fill="#30291B"/>
<path d="M168.536 17.259C168.708 16.3212 169.034 15.4341 169.515 14.5976C170.013 13.7494 170.639 13.014 171.394 12.3916C172.152 11.7548 173.025 11.3031 174.013 11.0364C175.003 10.7554 176.076 10.7203 177.23 10.9313C178.601 11.1819 179.711 11.713 180.562 12.5245C181.43 13.3243 182.005 14.2569 182.287 15.3224L180.962 15.8406C180.754 15.1018 180.433 14.4915 180 14.0096C179.569 13.5133 179.08 13.1259 178.535 12.8472C178.004 12.5712 177.457 12.3818 176.894 12.2789C175.971 12.1101 175.121 12.1486 174.346 12.3945C173.573 12.626 172.885 13.007 172.281 13.5377C171.694 14.0566 171.208 14.676 170.823 15.3958C170.44 16.1012 170.178 16.8435 170.035 17.6225C169.88 18.4738 169.875 19.3153 170.021 20.1471C170.167 20.979 170.445 21.7454 170.853 22.4463C171.265 23.1328 171.783 23.7196 172.41 24.2069C173.054 24.6825 173.787 24.9954 174.609 25.1457C175.186 25.2512 175.796 25.2584 176.439 25.1672C177.082 25.076 177.701 24.8687 178.297 24.5452C178.907 24.2244 179.432 23.7612 179.871 23.1556L181.007 24.0343C180.55 24.7409 179.941 25.3005 179.18 25.7129C178.418 26.1254 177.601 26.3936 176.729 26.5173C175.871 26.6437 175.052 26.6357 174.273 26.4933C173.22 26.3008 172.294 25.9004 171.496 25.2923C170.7 24.6697 170.046 23.9239 169.534 23.055C169.039 22.1743 168.704 21.2334 168.53 20.2323C168.357 19.2168 168.36 18.2257 168.536 17.259Z" fill="#30291B"/>
<path d="M168.536 17.2591C168.708 16.3214 169.034 15.4342 169.515 14.5977C170.013 13.7495 170.639 13.0141 171.394 12.3918C172.152 11.755 173.025 11.3032 174.013 11.0366C175.003 10.7555 176.076 10.7205 177.23 10.9315C178.601 11.182 179.711 11.7131 180.562 12.5246C181.43 13.3244 182.005 14.257 182.287 15.3225L180.962 15.8407C180.754 15.1019 180.433 14.4916 180 14.0097C179.569 13.5135 179.08 13.126 178.535 12.8473C178.004 12.5714 177.457 12.3819 176.894 12.279C175.971 12.1102 175.121 12.1488 174.346 12.3946C173.573 12.6261 172.885 13.0071 172.281 13.5379C171.694 14.0568 171.208 14.6761 170.823 15.3959C170.44 16.1013 170.178 16.8436 170.035 17.6227C169.88 18.4739 169.875 19.3154 170.021 20.1473C170.167 20.9791 170.445 21.7455 170.853 22.4464C171.265 23.1329 171.783 23.7198 172.41 24.2071C173.054 24.6826 173.787 24.9955 174.609 25.1459C175.186 25.2514 175.796 25.2585 176.439 25.1673C177.082 25.0761 177.701 24.8688 178.297 24.5453C178.907 24.2245 179.432 23.7613 179.871 23.1557L181.007 24.0344C180.55 24.741 179.941 25.3006 179.18 25.7131C178.418 26.1256 177.601 26.3937 176.729 26.5175C175.871 26.6439 175.052 26.6359 174.273 26.4934C173.22 26.3009 172.294 25.9005 171.496 25.2924C170.7 24.6698 170.046 23.924 169.534 23.0551C169.039 22.1744 168.704 21.2335 168.53 20.2324C168.357 19.2169 168.36 18.2258 168.536 17.2591Z" fill="#30291B"/>
<path d="M197.917 17.7934L192.585 16.1957L188.493 29.8517L187.018 29.4096L191.11 15.7536L185.778 14.1559L186.17 12.8493L198.308 16.4869L197.917 17.7934Z" fill="#30291B"/>
<path d="M197.917 17.7934L192.585 16.1957L188.493 29.8517L187.018 29.4096L191.11 15.7536L185.778 14.1559L186.17 12.8493L198.309 16.4869L197.917 17.7934Z" fill="#30291B"/>
<path d="M197.917 17.7934L192.585 16.1957L188.493 29.8517L187.018 29.4096L191.11 15.7536L185.778 14.1559L186.17 12.8493L198.308 16.4869L197.917 17.7934Z" fill="#30291B"/>
<path d="M205.392 19.3518L206.589 19.8529L206.545 36.7675L205.043 36.1389L205.062 30.8522L198.588 28.1424L194.856 31.8747L193.334 31.2376L205.392 19.3518ZM205.204 29.6001L205.284 21.2622L199.36 27.1537L205.204 29.6001Z" fill="#30291B"/>
<path d="M205.392 19.3525L206.59 19.8537L206.545 36.7682L205.043 36.1396L205.062 30.8529L198.588 28.1432L194.856 31.8754L193.334 31.2384L205.392 19.3525ZM205.205 29.6008L205.284 21.2629L199.36 27.1544L205.205 29.6008Z" fill="#30291B"/>
<path d="M205.392 19.3518L206.589 19.8529L206.545 36.7675L205.043 36.1389L205.062 30.8522L198.588 28.1424L194.856 31.8747L193.334 31.2376L205.392 19.3518ZM205.204 29.6001L205.284 21.2622L199.36 27.1537L205.204 29.6001Z" fill="#30291B"/>
<path d="M220.063 39.6902C219.685 40.3695 219.173 40.882 218.528 41.2277C217.889 41.5606 217.19 41.7168 216.429 41.6963C215.688 41.6702 214.972 41.4646 214.28 41.0795L207.84 37.4958L215.435 23.8467L222.01 27.5052C222.651 27.8618 223.105 28.3415 223.374 28.9442C223.663 29.5413 223.779 30.1768 223.723 30.8505C223.687 31.5186 223.509 32.141 223.188 32.7178C222.81 33.397 222.287 33.9287 221.62 34.3129C220.953 34.6971 220.234 34.859 219.462 34.7986C220.115 35.4643 220.492 36.236 220.591 37.1136C220.703 37.9983 220.527 38.8572 220.063 39.6902ZM218.846 38.7107C219.103 38.2493 219.235 37.7694 219.244 37.2708C219.26 36.7594 219.157 36.2821 218.933 35.8389C218.723 35.4028 218.393 35.06 217.945 34.8104L212.716 31.9007L209.838 37.072L214.933 39.9068C215.394 40.1635 215.878 40.2736 216.385 40.2369C216.893 40.2002 217.362 40.0502 217.794 39.787C218.246 39.518 218.596 39.1593 218.846 38.7107ZM216.128 25.7682L213.325 30.8049L218.016 33.4151C218.465 33.6647 218.926 33.7704 219.401 33.7323C219.882 33.6813 220.332 33.5207 220.751 33.2503C221.17 32.9799 221.501 32.6269 221.744 32.1911C222 31.7297 222.136 31.2597 222.151 30.7811C222.172 30.2896 222.081 29.8358 221.876 29.4197C221.671 29.0036 221.357 28.6779 220.934 28.4426L216.128 25.7682Z" fill="#30291B"/>
<path d="M220.063 39.6901C219.685 40.3694 219.173 40.8818 218.528 41.2276C217.889 41.5605 217.19 41.7167 216.429 41.6962C215.688 41.6701 214.972 41.4644 214.28 41.0793L207.84 37.4957L215.435 23.8466L222.01 27.5051C222.651 27.8617 223.105 28.3414 223.374 28.9441C223.663 29.5412 223.779 30.1766 223.723 30.8504C223.687 31.5185 223.509 32.1409 223.188 32.7176C222.81 33.3969 222.287 33.9286 221.62 34.3128C220.953 34.6969 220.234 34.8588 219.462 34.7985C220.115 35.4642 220.492 36.2359 220.591 37.1134C220.703 37.9982 220.527 38.8571 220.063 39.6901ZM218.846 38.7106C219.103 38.2492 219.235 37.7692 219.244 37.2706C219.26 36.7592 219.157 36.2819 218.933 35.8388C218.723 35.4027 218.393 35.0599 217.945 34.8103L212.716 31.9006L209.838 37.0719L214.933 39.9067C215.394 40.1634 215.878 40.2734 216.385 40.2367C216.893 40.2001 217.362 40.0501 217.794 39.7868C218.246 39.5179 218.596 39.1592 218.846 38.7106ZM216.128 25.7681L213.325 30.8048L218.016 33.415C218.465 33.6646 218.926 33.7703 219.401 33.7322C219.882 33.6812 220.332 33.5205 220.751 33.2502C221.17 32.9798 221.501 32.6267 221.744 32.191C222 31.7296 222.136 31.2596 222.151 30.781C222.172 30.2895 222.081 29.8357 221.876 29.4196C221.671 29.0035 221.357 28.6778 220.934 28.4424L216.128 25.7681Z" fill="#30291B"/>
<path d="M220.063 39.6902C219.685 40.3695 219.173 40.882 218.528 41.2277C217.889 41.5606 217.19 41.7168 216.429 41.6963C215.688 41.6702 214.972 41.4646 214.28 41.0795L207.84 37.4958L215.435 23.8467L222.01 27.5052C222.651 27.8618 223.105 28.3415 223.374 28.9442C223.663 29.5413 223.779 30.1768 223.723 30.8505C223.687 31.5186 223.509 32.141 223.188 32.7178C222.81 33.397 222.287 33.9287 221.62 34.3129C220.953 34.6971 220.234 34.859 219.462 34.7986C220.115 35.4643 220.492 36.236 220.591 37.1136C220.703 37.9983 220.527 38.8572 220.063 39.6902ZM218.846 38.7107C219.103 38.2493 219.235 37.7694 219.244 37.2708C219.26 36.7594 219.157 36.2821 218.933 35.8389C218.723 35.4028 218.393 35.06 217.945 34.8104L212.716 31.9007L209.838 37.072L214.933 39.9068C215.394 40.1635 215.878 40.2736 216.385 40.2369C216.893 40.2002 217.362 40.0502 217.794 39.787C218.246 39.518 218.596 39.1593 218.846 38.7107ZM216.128 25.7682L213.325 30.8049L218.016 33.4151C218.465 33.6647 218.926 33.7704 219.401 33.7323C219.882 33.6813 220.332 33.5207 220.751 33.2503C221.17 32.9799 221.501 32.6269 221.744 32.1911C222 31.7297 222.136 31.2597 222.151 30.7811C222.172 30.2896 222.081 29.8358 221.876 29.4197C221.671 29.0036 221.357 28.6779 220.934 28.4426L216.128 25.7682Z" fill="#30291B"/>
<path d="M220.072 44.5251L229.075 31.7605L230.333 32.6481L226.834 37.6101L230.07 39.8925C230.993 40.5434 231.645 41.2463 232.028 42.001C232.412 42.7557 232.546 43.5324 232.431 44.331C232.329 45.1381 232.003 45.9312 231.453 46.7102C230.954 47.4174 230.344 47.9649 229.621 48.3528C228.899 48.7408 228.116 48.8972 227.271 48.8221C226.427 48.747 225.555 48.3925 224.656 47.7585L220.072 44.5251ZM222.079 44.3519L225.243 46.5836C225.95 47.0824 226.612 47.3521 227.23 47.3927C227.856 47.4214 228.417 47.2876 228.913 46.9914C229.429 46.6916 229.856 46.302 230.195 45.8226C230.55 45.3192 230.789 44.7884 230.914 44.2301C231.038 43.6718 230.978 43.1087 230.733 42.5407C230.487 41.9727 229.987 41.4224 229.232 40.8898L226.085 38.6708L222.079 44.3519Z" fill="#30291B"/>
<path d="M220.072 44.5257L229.075 31.7611L230.333 32.6487L226.834 37.6107L230.07 39.8931C230.993 40.544 231.645 41.2469 232.028 42.0016C232.412 42.7563 232.546 43.533 232.431 44.3316C232.329 45.1387 232.003 45.9318 231.453 46.7108C230.954 47.418 230.344 47.9655 229.621 48.3534C228.899 48.7414 228.116 48.8978 227.271 48.8227C226.427 48.7476 225.555 48.3931 224.656 47.7591L220.072 44.5257ZM222.079 44.3526L225.243 46.5842C225.95 47.083 226.612 47.3527 227.23 47.3933C227.856 47.422 228.417 47.2882 228.913 46.992C229.429 46.6922 229.856 46.3026 230.195 45.8232C230.55 45.3198 230.789 44.789 230.914 44.2307C231.038 43.6724 230.978 43.1093 230.733 42.5413C230.487 41.9733 229.987 41.423 229.232 40.8905L226.085 38.6714L222.079 44.3526Z" fill="#30291B"/>
<path d="M220.072 44.5251L229.075 31.7605L230.333 32.6481L226.834 37.6101L230.07 39.8925C230.993 40.5434 231.645 41.2463 232.028 42.001C232.412 42.7557 232.546 43.5324 232.431 44.331C232.329 45.1381 232.003 45.9312 231.453 46.7102C230.954 47.4174 230.344 47.9649 229.621 48.3528C228.899 48.7408 228.116 48.8972 227.271 48.8221C226.427 48.747 225.555 48.3925 224.656 47.7585L220.072 44.5251ZM222.079 44.3519L225.243 46.5836C225.95 47.0824 226.612 47.3521 227.23 47.3927C227.856 47.4214 228.417 47.2876 228.913 46.9914C229.429 46.6916 229.856 46.302 230.195 45.8226C230.55 45.3192 230.789 44.7884 230.914 44.2301C231.038 43.6718 230.978 43.1087 230.733 42.5407C230.487 41.9727 229.987 41.4224 229.232 40.8898L226.085 38.6708L222.079 44.3519Z" fill="#30291B"/>
<path d="M250.807 72.8686C250.128 72.0032 249.686 71.0828 249.479 70.1074C249.273 69.1319 249.265 68.1595 249.455 67.19C249.657 66.2115 250.018 65.294 250.539 64.4376C251.072 63.5722 251.731 62.8316 252.515 62.2159C253.334 61.573 254.226 61.1061 255.191 60.815C256.167 60.5149 257.148 60.3981 258.132 60.4646C259.137 60.5336 260.083 60.7887 260.97 61.2299C261.868 61.6621 262.639 62.2878 263.282 63.107C263.961 63.9724 264.398 64.8973 264.593 65.8818C264.787 66.8663 264.779 67.842 264.569 68.809C264.367 69.7875 264.006 70.705 263.485 71.5614C262.963 72.4178 262.316 73.1493 261.543 73.756C260.724 74.3988 259.826 74.8703 258.85 75.1704C257.885 75.4615 256.905 75.5783 255.909 75.5208C254.925 75.4544 253.989 75.2005 253.102 74.7593C252.215 74.318 251.45 73.6878 250.807 72.8686ZM253.466 63.4274C252.797 63.9525 252.237 64.5692 251.786 65.2774C251.346 65.9765 251.042 66.7181 250.875 67.5022C250.719 68.2773 250.714 69.0549 250.86 69.8351C251.027 70.6178 251.373 71.3437 251.898 72.0129C252.45 72.7168 253.088 73.2324 253.811 73.5599C254.554 73.8898 255.323 74.0608 256.115 74.0728C256.928 74.0873 257.722 73.9584 258.496 73.6862C259.271 73.414 259.975 73.0289 260.61 72.5309C261.279 72.0057 261.833 71.3936 262.273 70.6945C262.712 69.9954 263.011 69.248 263.17 68.4523C263.338 67.6682 263.343 66.8906 263.185 66.1194C263.027 65.3483 262.686 64.6281 262.161 63.9589C261.618 63.2666 260.98 62.751 260.248 62.412C259.525 62.0845 258.757 61.9136 257.944 61.8991C257.151 61.8871 256.363 62.0114 255.58 62.2721C254.805 62.5443 254.1 62.9294 253.466 63.4274Z" fill="#30291B"/>
<path d="M250.807 72.8687C250.128 72.0034 249.686 71.083 249.479 70.1075C249.273 69.132 249.265 68.1596 249.455 67.1901C249.657 66.2116 250.018 65.2942 250.539 64.4378C251.072 63.5723 251.731 62.8317 252.515 62.216C253.334 61.5731 254.226 61.1062 255.191 60.8151C256.167 60.5151 257.148 60.3982 258.132 60.4647C259.137 60.5337 260.083 60.7888 260.97 61.23C261.868 61.6622 262.639 62.2879 263.282 63.1071C263.961 63.9725 264.398 64.8974 264.593 65.8819C264.787 66.8664 264.779 67.8422 264.569 68.8091C264.367 69.7877 264.006 70.7051 263.485 71.5615C262.963 72.4179 262.316 73.1494 261.543 73.7561C260.724 74.399 259.826 74.8705 258.85 75.1705C257.885 75.4616 256.905 75.5784 255.909 75.521C254.925 75.4545 253.989 75.2006 253.102 74.7594C252.215 74.3181 251.45 73.6879 250.807 72.8687ZM253.466 63.4275C252.797 63.9527 252.237 64.5693 251.786 65.2775C251.346 65.9766 251.042 66.7182 250.875 67.5024C250.719 68.2774 250.714 69.0551 250.86 69.8352C251.027 70.6179 251.373 71.3439 251.898 72.0131C252.45 72.7169 253.088 73.2325 253.811 73.56C254.554 73.8899 255.323 74.0609 256.115 74.0729C256.928 74.0874 257.722 73.9585 258.496 73.6863C259.271 73.4141 259.975 73.029 260.61 72.531C261.279 72.0059 261.833 71.3937 262.273 70.6946C262.712 69.9955 263.011 69.2481 263.17 68.4524C263.338 67.6683 263.343 66.8907 263.185 66.1196C263.027 65.3484 262.686 64.6283 262.161 63.9591C261.618 63.2668 260.98 62.7511 260.248 62.4121C259.525 62.0847 258.757 61.9137 257.944 61.8992C257.151 61.8872 256.363 62.0115 255.58 62.2722C254.805 62.5444 254.1 62.9295 253.466 63.4275Z" fill="#30291B"/>
<path d="M250.807 72.8686C250.128 72.0032 249.686 71.0828 249.479 70.1074C249.273 69.1319 249.265 68.1595 249.455 67.19C249.657 66.2115 250.018 65.294 250.539 64.4376C251.072 63.5722 251.731 62.8316 252.515 62.2159C253.334 61.573 254.226 61.1061 255.191 60.815C256.167 60.5149 257.148 60.3981 258.132 60.4646C259.137 60.5336 260.083 60.7887 260.97 61.2299C261.868 61.6621 262.639 62.2878 263.282 63.107C263.961 63.9724 264.398 64.8973 264.593 65.8818C264.787 66.8663 264.779 67.842 264.569 68.809C264.367 69.7875 264.006 70.705 263.485 71.5614C262.963 72.4178 262.316 73.1493 261.543 73.756C260.724 74.3988 259.826 74.8703 258.85 75.1704C257.885 75.4615 256.905 75.5783 255.909 75.5208C254.925 75.4544 253.989 75.2005 253.102 74.7593C252.215 74.318 251.45 73.6878 250.807 72.8686ZM253.466 63.4274C252.797 63.9525 252.237 64.5692 251.786 65.2774C251.346 65.9765 251.042 66.7181 250.875 67.5022C250.719 68.2773 250.714 69.0549 250.86 69.8351C251.027 70.6178 251.373 71.3437 251.898 72.0129C252.45 72.7168 253.088 73.2324 253.811 73.5599C254.554 73.8898 255.323 74.0608 256.115 74.0728C256.928 74.0873 257.722 73.9584 258.496 73.6862C259.271 73.414 259.975 73.0289 260.61 72.5309C261.279 72.0057 261.833 71.3936 262.273 70.6945C262.712 69.9954 263.011 69.248 263.17 68.4523C263.338 67.6682 263.343 66.8906 263.185 66.1194C263.027 65.3483 262.686 64.6281 262.161 63.9589C261.618 63.2666 260.98 62.751 260.248 62.412C259.525 62.0845 258.757 61.9136 257.944 61.8991C257.151 61.8871 256.363 62.0114 255.58 62.2721C254.805 62.5443 254.1 62.9294 253.466 63.4274Z" fill="#30291B"/>
<path d="M274.68 82.6059L271.744 77.8773L259.633 85.3972L258.821 84.0889L270.932 76.569L267.996 71.8403L269.155 71.1208L275.839 81.8864L274.68 82.6059Z" fill="#30291B"/>
<path d="M274.68 82.6061L271.744 77.8774L259.633 85.3973L258.821 84.089L270.932 76.5691L267.996 71.8404L269.155 71.1209L275.839 81.8866L274.68 82.6061Z" fill="#30291B"/>
<path d="M274.68 82.6059L271.744 77.8773L259.633 85.3972L258.821 84.0889L270.932 76.569L267.996 71.8403L269.155 71.1208L275.839 81.8864L274.68 82.6059Z" fill="#30291B"/>
<path d="M264.597 94.8236C264.118 93.8659 263.892 92.9049 263.919 91.9407C263.958 90.97 264.237 90.0846 264.756 89.2845L265.936 90.0227C265.523 90.6392 265.299 91.3081 265.267 92.0296C265.234 92.7511 265.401 93.4792 265.768 94.2139C266.266 95.2111 266.915 95.8704 267.715 96.192C268.535 96.5202 269.378 96.4679 270.244 96.0352C270.795 95.7599 271.218 95.3926 271.513 94.9336C271.828 94.4811 271.992 93.9728 272.006 93.4087C272.019 92.8446 271.868 92.2477 271.554 91.618L270.885 90.2797L271.987 89.729L272.665 91.0869C272.908 91.5724 273.233 91.943 273.639 92.1989C274.059 92.4483 274.511 92.5829 274.997 92.6027C275.482 92.6225 275.961 92.5144 276.433 92.2783C276.945 92.0227 277.332 91.6817 277.595 91.2554C277.864 90.8423 278.005 90.37 278.018 89.8387C278.038 89.3206 277.91 88.786 277.635 88.2349C277.3 87.5658 276.854 87.0508 276.297 86.6899C275.74 86.329 275.117 86.1321 274.428 86.0992L274.595 84.7611C275.52 84.8073 276.353 85.0633 277.094 85.5292C277.842 86.0082 278.452 86.72 278.924 87.6646C279.324 88.4649 279.514 89.239 279.494 89.9867C279.494 90.741 279.303 91.4264 278.923 92.0428C278.562 92.6659 278.014 93.1609 277.279 93.5281C276.571 93.8821 275.839 94.0262 275.085 93.9604C274.35 93.9012 273.675 93.6157 273.059 93.104C273.248 94.042 273.133 94.8946 272.714 95.6619C272.3 96.4424 271.667 97.0457 270.814 97.4718C270.001 97.8783 269.201 98.0322 268.413 97.9336C267.639 97.8285 266.921 97.5069 266.259 96.9689C265.603 96.444 265.049 95.7289 264.597 94.8236Z" fill="#30291B"/>
<path d="M264.597 94.8241C264.118 93.8664 263.892 92.9054 263.919 91.9412C263.958 90.9705 264.237 90.0851 264.756 89.285L265.936 90.0232C265.523 90.6396 265.299 91.3086 265.267 92.0301C265.234 92.7516 265.401 93.4797 265.768 94.2144C266.266 95.2115 266.915 95.8709 267.715 96.1925C268.535 96.5206 269.378 96.4684 270.244 96.0357C270.795 95.7603 271.218 95.3931 271.513 94.9341C271.828 94.4816 271.992 93.9733 272.006 93.4092C272.019 92.8451 271.868 92.2482 271.554 91.6184L270.885 90.2802L271.987 89.7295L272.665 91.0874C272.908 91.5729 273.233 91.9435 273.639 92.1994C274.059 92.4488 274.511 92.5834 274.997 92.6032C275.482 92.623 275.961 92.5149 276.433 92.2788C276.945 92.0232 277.332 91.6822 277.595 91.2559C277.864 90.8427 278.005 90.3705 278.018 89.8392C278.038 89.3211 277.91 88.7865 277.635 88.2354C277.3 87.5663 276.854 87.0513 276.297 86.6904C275.74 86.3295 275.117 86.1326 274.428 86.0996L274.595 84.7616C275.52 84.8078 276.353 85.0638 277.094 85.5297C277.842 86.0087 278.452 86.7205 278.924 87.6651C279.324 88.4654 279.514 89.2394 279.494 89.9872C279.494 90.7415 279.303 91.4269 278.923 92.0433C278.562 92.6664 278.014 93.1614 277.279 93.5286C276.571 93.8826 275.839 94.0267 275.085 93.9609C274.35 93.9017 273.675 93.6162 273.059 93.1045C273.248 94.0425 273.133 94.8951 272.714 95.6624C272.3 96.4429 271.667 97.0462 270.814 97.4723C270.001 97.8787 269.201 98.0327 268.413 97.9341C267.639 97.829 266.921 97.5074 266.259 96.9694C265.603 96.4445 265.049 95.7294 264.597 94.8241Z" fill="#30291B"/>
<path d="M264.597 94.8236C264.118 93.8659 263.892 92.9049 263.919 91.9407C263.958 90.97 264.237 90.0846 264.756 89.2845L265.936 90.0227C265.523 90.6392 265.299 91.3081 265.267 92.0296C265.234 92.7511 265.401 93.4792 265.768 94.2139C266.266 95.2111 266.915 95.8704 267.715 96.192C268.535 96.5202 269.378 96.4679 270.244 96.0352C270.795 95.7599 271.218 95.3926 271.513 94.9336C271.828 94.4811 271.992 93.9728 272.006 93.4087C272.019 92.8446 271.868 92.2477 271.554 91.618L270.885 90.2797L271.987 89.729L272.665 91.0869C272.908 91.5724 273.233 91.943 273.639 92.1989C274.059 92.4483 274.511 92.5829 274.997 92.6027C275.482 92.6225 275.961 92.5144 276.433 92.2783C276.945 92.0227 277.332 91.6817 277.595 91.2554C277.864 90.8423 278.005 90.37 278.018 89.8387C278.038 89.3206 277.91 88.786 277.635 88.2349C277.3 87.5658 276.854 87.0508 276.297 86.6899C275.74 86.329 275.117 86.1321 274.428 86.0992L274.595 84.7611C275.52 84.8073 276.353 85.0633 277.094 85.5292C277.842 86.0082 278.452 86.72 278.924 87.6646C279.324 88.4649 279.514 89.239 279.494 89.9867C279.494 90.741 279.303 91.4264 278.923 92.0428C278.562 92.6659 278.014 93.1609 277.279 93.5281C276.571 93.8821 275.839 94.0262 275.085 93.9604C274.35 93.9012 273.675 93.6157 273.059 93.104C273.248 94.042 273.133 94.8946 272.714 95.6619C272.3 96.4424 271.667 97.0457 270.814 97.4718C270.001 97.8783 269.201 98.0322 268.413 97.9336C267.639 97.8285 266.921 97.5069 266.259 96.9689C265.603 96.444 265.049 95.7289 264.597 94.8236Z" fill="#30291B"/>
<path d="M267.979 101.175L282.665 95.8523L283.189 97.3002L277.481 99.3691L278.83 103.092C279.215 104.154 279.349 105.104 279.231 105.942C279.114 106.78 278.78 107.494 278.229 108.084C277.683 108.687 276.962 109.151 276.066 109.476C275.252 109.771 274.438 109.871 273.624 109.776C272.81 109.681 272.077 109.362 271.428 108.817C270.778 108.272 270.266 107.483 269.891 106.449L267.979 101.175ZM269.724 102.18L271.044 105.821C271.339 106.634 271.728 107.234 272.211 107.621C272.708 108.002 273.245 108.213 273.821 108.254C274.416 108.303 274.99 108.228 275.541 108.028C276.12 107.818 276.621 107.52 277.042 107.133C277.463 106.747 277.736 106.25 277.859 105.644C277.983 105.037 277.887 104.3 277.572 103.431L276.26 99.8114L269.724 102.18ZM272.507 113.667L287.172 108.353L287.689 109.78L273.024 115.095L272.507 113.667Z" fill="#30291B"/>
<path d="M267.979 101.175L282.665 95.8523L283.189 97.3002L277.481 99.3691L278.83 103.092C279.215 104.154 279.349 105.104 279.231 105.942C279.114 106.78 278.78 107.494 278.229 108.084C277.683 108.687 276.962 109.151 276.066 109.476C275.252 109.771 274.438 109.871 273.624 109.776C272.81 109.681 272.077 109.362 271.428 108.817C270.778 108.272 270.266 107.483 269.891 106.449L267.979 101.175ZM269.724 102.18L271.044 105.821C271.339 106.634 271.728 107.234 272.211 107.621C272.708 108.002 273.245 108.213 273.821 108.254C274.416 108.303 274.99 108.228 275.541 108.028C276.12 107.818 276.621 107.52 277.042 107.133C277.463 106.747 277.736 106.25 277.859 105.644C277.983 105.037 277.887 104.3 277.572 103.431L276.26 99.8114L269.724 102.18ZM272.507 113.667L287.172 108.353L287.689 109.78L273.024 115.095L272.507 113.667Z" fill="#30291B"/>
<path d="M267.979 101.175L282.665 95.8523L283.189 97.3002L277.481 99.3691L278.83 103.092C279.215 104.154 279.349 105.104 279.231 105.942C279.114 106.78 278.78 107.494 278.229 108.084C277.683 108.687 276.962 109.151 276.066 109.476C275.252 109.771 274.438 109.871 273.624 109.776C272.81 109.681 272.077 109.362 271.428 108.817C270.778 108.272 270.266 107.483 269.891 106.449L267.979 101.175ZM269.724 102.18L271.044 105.821C271.339 106.634 271.728 107.234 272.211 107.621C272.708 108.002 273.245 108.213 273.821 108.254C274.416 108.303 274.99 108.228 275.541 108.028C276.12 107.818 276.621 107.52 277.042 107.133C277.463 106.747 277.736 106.25 277.859 105.644C277.983 105.037 277.887 104.3 277.572 103.431L276.26 99.8114L269.724 102.18ZM272.507 113.667L287.172 108.353L287.689 109.78L273.024 115.095L272.507 113.667Z" fill="#30291B"/>
<path d="M280.268 128.797C279.509 128.966 278.786 128.924 278.099 128.671C277.426 128.416 276.844 127.997 276.354 127.414C275.881 126.844 275.559 126.172 275.387 125.398L273.786 118.204L289.033 114.811L290.667 122.155C290.827 122.871 290.77 123.53 290.499 124.131C290.244 124.744 289.847 125.253 289.306 125.659C288.783 126.076 288.199 126.356 287.555 126.499C286.796 126.668 286.052 126.631 285.321 126.388C284.591 126.145 283.992 125.714 283.524 125.097C283.461 126.028 283.134 126.822 282.544 127.479C281.957 128.151 281.199 128.59 280.268 128.797ZM280.191 127.237C280.707 127.122 281.153 126.902 281.532 126.578C281.925 126.25 282.213 125.855 282.395 125.394C282.581 124.947 282.619 124.473 282.507 123.971L281.207 118.13L275.43 119.416L276.697 125.107C276.812 125.622 277.051 126.057 277.416 126.412C277.78 126.767 278.204 127.018 278.688 127.166C279.189 127.324 279.69 127.348 280.191 127.237ZM288.057 116.606L282.431 117.858L283.597 123.098C283.709 123.599 283.936 124.014 284.28 124.343C284.638 124.669 285.057 124.899 285.538 125.032C286.018 125.166 286.502 125.178 286.989 125.07C287.504 124.955 287.946 124.744 288.313 124.437C288.695 124.127 288.973 123.757 289.148 123.327C289.323 122.898 289.357 122.447 289.252 121.974L288.057 116.606Z" fill="#30291B"/>
<path d="M280.268 128.797C279.509 128.966 278.786 128.924 278.099 128.671C277.426 128.416 276.844 127.997 276.354 127.414C275.881 126.844 275.559 126.172 275.387 125.398L273.786 118.204L289.033 114.811L290.667 122.155C290.827 122.871 290.77 123.53 290.499 124.131C290.244 124.744 289.847 125.253 289.306 125.659C288.783 126.076 288.199 126.356 287.555 126.499C286.796 126.668 286.052 126.631 285.321 126.388C284.591 126.145 283.992 125.714 283.524 125.097C283.461 126.028 283.134 126.822 282.544 127.479C281.957 128.151 281.199 128.59 280.268 128.797ZM280.191 127.237C280.707 127.122 281.153 126.902 281.532 126.578C281.925 126.25 282.213 125.855 282.395 125.394C282.581 124.947 282.619 124.473 282.507 123.971L281.207 118.13L275.43 119.416L276.697 125.107C276.812 125.622 277.051 126.057 277.416 126.412C277.78 126.767 278.204 127.018 278.688 127.166C279.189 127.324 279.69 127.348 280.191 127.237ZM288.057 116.606L282.431 117.858L283.597 123.098C283.709 123.599 283.936 124.014 284.28 124.343C284.638 124.669 285.057 124.899 285.538 125.032C286.018 125.166 286.502 125.178 286.989 125.07C287.504 124.955 287.946 124.744 288.313 124.437C288.695 124.127 288.973 123.757 289.148 123.327C289.323 122.898 289.357 122.447 289.252 121.974L288.057 116.606Z" fill="#30291B"/>
<path d="M280.268 128.797C279.509 128.966 278.786 128.924 278.099 128.671C277.426 128.416 276.844 127.997 276.354 127.414C275.881 126.844 275.559 126.172 275.387 125.398L273.786 118.204L289.033 114.811L290.667 122.155C290.827 122.871 290.77 123.53 290.499 124.131C290.244 124.744 289.847 125.253 289.306 125.659C288.783 126.076 288.199 126.356 287.555 126.499C286.796 126.668 286.052 126.631 285.321 126.388C284.591 126.145 283.992 125.714 283.524 125.097C283.461 126.028 283.134 126.822 282.544 127.479C281.957 128.151 281.199 128.59 280.268 128.797ZM280.191 127.237C280.707 127.122 281.153 126.902 281.532 126.578C281.925 126.25 282.213 125.855 282.395 125.394C282.581 124.947 282.619 124.473 282.507 123.971L281.207 118.13L275.43 119.416L276.697 125.107C276.812 125.622 277.051 126.057 277.416 126.412C277.78 126.767 278.204 127.018 278.688 127.166C279.189 127.324 279.69 127.348 280.191 127.237ZM288.057 116.606L282.431 117.858L283.597 123.098C283.709 123.599 283.936 124.014 284.28 124.343C284.638 124.669 285.057 124.899 285.538 125.032C286.018 125.166 286.502 125.178 286.989 125.07C287.504 124.955 287.946 124.744 288.313 124.437C288.695 124.127 288.973 123.757 289.148 123.327C289.323 122.898 289.357 122.447 289.252 121.974L288.057 116.606Z" fill="#30291B"/>
<path d="M278.085 155.114L293.658 156.318L293.541 157.831L280.073 156.79L292.795 167.482L292.685 168.908L277.111 167.704L277.228 166.191L290.455 167.213L277.966 156.649L278.085 155.114Z" fill="#30291B"/>
<path d="M278.085 155.114L293.658 156.318L293.541 157.831L280.073 156.79L292.795 167.482L292.685 168.908L277.111 167.704L277.228 166.191L290.455 167.213L277.966 156.649L278.085 155.114Z" fill="#30291B"/>
<path d="M278.085 155.114L293.658 156.318L293.541 157.831L280.073 156.79L292.795 167.482L292.685 168.908L277.111 167.704L277.228 166.191L290.455 167.213L277.966 156.649L278.085 155.114Z" fill="#30291B"/>
<path d="M271.157 192.849L285.676 198.609L281.327 209.57L266.808 203.81L267.376 202.378L280.627 207.636L283.84 199.538L270.589 194.28L271.157 192.849Z" fill="#30291B"/>
<path d="M271.157 192.849L285.676 198.61L281.327 209.571L266.808 203.81L267.376 202.379L280.627 207.636L283.84 199.538L270.589 194.281L271.157 192.849Z" fill="#30291B"/>
<path d="M271.157 192.849L285.676 198.609L281.327 209.57L266.808 203.81L267.376 202.378L280.627 207.636L283.84 199.538L270.589 194.28L271.157 192.849Z" fill="#30291B"/>
<path d="M262.306 212.211C262.838 211.247 263.512 210.48 264.33 209.909C265.147 209.339 266.039 208.951 267.006 208.748C267.985 208.551 268.971 208.525 269.963 208.67C270.968 208.823 271.907 209.14 272.78 209.621C273.692 210.124 274.47 210.763 275.115 211.537C275.772 212.319 276.263 213.176 276.586 214.108C276.915 215.06 277.05 216.03 276.99 217.019C276.943 218.015 276.669 218.969 276.166 219.881C275.634 220.844 274.953 221.607 274.123 222.171C273.293 222.735 272.392 223.109 271.419 223.293C270.44 223.489 269.454 223.515 268.462 223.37C267.47 223.225 266.544 222.915 265.683 222.44C264.772 221.937 263.987 221.295 263.329 220.513C262.685 219.739 262.194 218.882 261.858 217.943C261.535 217.011 261.403 216.05 261.462 215.061C261.522 214.073 261.803 213.122 262.306 212.211ZM272.036 210.97C271.291 210.559 270.505 210.284 269.677 210.146C268.861 210.014 268.06 210.024 267.273 210.176C266.498 210.335 265.781 210.634 265.119 211.074C264.464 211.533 263.931 212.135 263.52 212.88C263.088 213.663 262.862 214.452 262.843 215.245C262.83 216.059 262.973 216.833 263.271 217.567C263.576 218.321 264.004 219.001 264.557 219.608C265.111 220.215 265.74 220.713 266.447 221.102C267.191 221.513 267.971 221.784 268.787 221.916C269.602 222.047 270.407 222.031 271.201 221.866C271.989 221.714 272.706 221.415 273.355 220.968C274.003 220.522 274.532 219.926 274.943 219.181C275.368 218.411 275.594 217.622 275.62 216.816C275.639 216.022 275.496 215.249 275.192 214.495C274.894 213.76 274.471 213.084 273.925 212.464C273.372 211.857 272.742 211.359 272.036 210.97Z" fill="#30291B"/>
<path d="M262.307 212.211C262.838 211.248 263.513 210.481 264.33 209.91C265.147 209.339 266.039 208.952 267.006 208.748C267.986 208.551 268.971 208.525 269.963 208.671C270.968 208.823 271.907 209.14 272.78 209.621C273.692 210.124 274.47 210.763 275.115 211.538C275.773 212.319 276.263 213.176 276.587 214.108C276.916 215.06 277.051 216.031 276.991 217.019C276.944 218.015 276.669 218.969 276.166 219.881C275.635 220.844 274.954 221.608 274.124 222.171C273.293 222.735 272.392 223.109 271.42 223.293C270.44 223.489 269.454 223.515 268.463 223.37C267.471 223.225 266.544 222.915 265.684 222.44C264.772 221.937 263.987 221.295 263.33 220.514C262.685 219.739 262.195 218.882 261.858 217.943C261.535 217.011 261.403 216.051 261.463 215.062C261.523 214.073 261.804 213.123 262.307 212.211ZM272.037 210.97C271.292 210.559 270.505 210.284 269.677 210.146C268.862 210.014 268.061 210.025 267.273 210.177C266.499 210.336 265.781 210.635 265.12 211.074C264.465 211.533 263.931 212.135 263.521 212.88C263.088 213.664 262.863 214.452 262.844 215.246C262.831 216.059 262.973 216.833 263.272 217.567C263.576 218.321 264.005 219.002 264.558 219.608C265.111 220.215 265.741 220.713 266.447 221.103C267.192 221.513 267.972 221.785 268.787 221.916C269.602 222.047 270.407 222.031 271.202 221.866C271.989 221.714 272.707 221.415 273.355 220.969C274.003 220.522 274.533 219.926 274.944 219.182C275.369 218.411 275.594 217.623 275.62 216.816C275.639 216.023 275.497 215.249 275.193 214.495C274.894 213.761 274.472 213.084 273.926 212.464C273.373 211.858 272.743 211.36 272.037 210.97Z" fill="#30291B"/>
<path d="M262.306 212.211C262.838 211.247 263.512 210.48 264.33 209.909C265.147 209.339 266.039 208.951 267.006 208.748C267.985 208.551 268.971 208.525 269.963 208.67C270.968 208.823 271.907 209.14 272.78 209.621C273.692 210.124 274.47 210.763 275.115 211.537C275.772 212.319 276.263 213.176 276.586 214.108C276.915 215.06 277.05 216.03 276.99 217.019C276.943 218.015 276.669 218.969 276.166 219.881C275.634 220.844 274.953 221.607 274.123 222.171C273.293 222.735 272.392 223.109 271.419 223.293C270.44 223.489 269.454 223.515 268.462 223.37C267.47 223.225 266.544 222.915 265.683 222.44C264.772 221.937 263.987 221.295 263.329 220.513C262.685 219.739 262.194 218.882 261.858 217.943C261.535 217.011 261.403 216.05 261.462 215.061C261.522 214.073 261.803 213.122 262.306 212.211ZM272.036 210.97C271.291 210.559 270.505 210.284 269.677 210.146C268.861 210.014 268.06 210.024 267.273 210.176C266.498 210.335 265.781 210.634 265.119 211.074C264.464 211.533 263.931 212.135 263.52 212.88C263.088 213.663 262.862 214.452 262.843 215.245C262.83 216.059 262.973 216.833 263.271 217.567C263.576 218.321 264.004 219.001 264.557 219.608C265.111 220.215 265.74 220.713 266.447 221.102C267.191 221.513 267.971 221.784 268.787 221.916C269.602 222.047 270.407 222.031 271.201 221.866C271.989 221.714 272.706 221.415 273.355 220.968C274.003 220.522 274.532 219.926 274.943 219.181C275.368 218.411 275.594 217.622 275.62 216.816C275.639 216.022 275.496 215.249 275.192 214.495C274.894 213.76 274.471 213.084 273.925 212.464C273.372 211.857 272.742 211.359 272.036 210.97Z" fill="#30291B"/>
<path d="M251.339 229.232L262.898 237.576L266.632 232.403L264.008 230.4C262.303 229.079 260.942 227.907 259.926 226.884C258.91 225.861 258.193 224.937 257.776 224.111C257.371 223.294 257.206 222.533 257.281 221.827C257.368 221.13 257.661 220.437 258.159 219.747L259.265 220.546C258.93 221.009 258.753 221.505 258.733 222.034C258.713 222.562 258.91 223.166 259.325 223.845C259.739 224.524 260.418 225.313 261.362 226.211C262.308 227.129 263.573 228.196 265.156 229.411L268.575 232.042L263.116 239.605L250.451 230.463L251.339 229.232Z" fill="#30291B"/>
<path d="M251.339 229.232L262.898 237.576L266.632 232.403L264.008 230.4C262.303 229.079 260.942 227.907 259.926 226.884C258.91 225.861 258.193 224.937 257.776 224.111C257.371 223.294 257.206 222.533 257.281 221.827C257.368 221.13 257.661 220.437 258.159 219.747L259.265 220.546C258.93 221.009 258.753 221.505 258.733 222.034C258.713 222.562 258.91 223.166 259.325 223.845C259.739 224.524 260.418 225.313 261.362 226.211C262.308 227.129 263.573 228.196 265.156 229.411L268.575 232.042L263.116 239.605L250.451 230.463L251.339 229.232Z" fill="#30291B"/>
<path d="M251.339 229.232L262.898 237.576L266.632 232.403L264.008 230.4C262.303 229.079 260.942 227.907 259.926 226.884C258.91 225.861 258.193 224.937 257.776 224.111C257.371 223.294 257.206 222.533 257.281 221.827C257.368 221.13 257.661 220.437 258.159 219.747L259.265 220.546C258.93 221.009 258.753 221.505 258.733 222.034C258.713 222.562 258.91 223.166 259.325 223.845C259.739 224.524 260.418 225.313 261.362 226.211C262.308 227.129 263.573 228.196 265.156 229.411L268.575 232.042L263.116 239.605L250.451 230.463L251.339 229.232Z" fill="#30291B"/>
<path d="M247.323 233.995L248.286 234.865L247.622 235.6C247.396 235.85 247.3 236.099 247.333 236.347C247.357 236.605 247.441 236.938 247.587 237.346L248.191 238.811L261.41 241.767L260.275 243.024L248.878 240.38L253.3 250.747L252.224 251.939L246.235 237.727C245.986 237.106 245.866 236.593 245.877 236.187C245.887 235.782 246.079 235.372 246.453 234.959L247.323 233.995Z" fill="#30291B"/>
<path d="M247.323 233.996L248.286 234.866L247.623 235.6C247.397 235.851 247.301 236.1 247.334 236.347C247.357 236.606 247.442 236.939 247.587 237.347L248.191 238.811L261.411 241.767L260.275 243.025L248.879 240.381L253.301 250.747L252.224 251.939L246.236 237.727C245.986 237.106 245.867 236.593 245.877 236.188C245.888 235.782 246.08 235.373 246.453 234.959L247.323 233.996Z" fill="#30291B"/>
<path d="M247.323 233.995L248.286 234.865L247.622 235.6C247.396 235.85 247.3 236.099 247.333 236.347C247.357 236.605 247.441 236.938 247.587 237.346L248.191 238.811L261.41 241.767L260.275 243.024L248.878 240.38L253.3 250.747L252.224 251.939L246.235 237.727C245.986 237.106 245.866 236.593 245.877 236.187C245.887 235.782 246.079 235.372 246.453 234.959L247.323 233.995Z" fill="#30291B"/>
<path d="M233.01 248.259L237.486 253.288C237.63 252.964 237.816 252.611 238.046 252.23C238.276 251.848 238.548 251.459 238.862 251.062C239.186 250.676 239.562 250.292 239.989 249.912C241.282 248.761 242.483 248.192 243.594 248.205C244.715 248.229 245.821 248.854 246.913 250.081L250.248 253.828L249.13 254.823L245.913 251.207C245.103 250.298 244.294 249.83 243.486 249.804C242.666 249.787 241.758 250.223 240.761 251.11C240.202 251.607 239.713 252.15 239.294 252.739C238.865 253.337 238.569 253.865 238.407 254.323L243.395 259.927L242.277 260.922L231.893 249.254L233.01 248.259Z" fill="#30291B"/>
<path d="M233.01 248.259L237.486 253.288C237.63 252.964 237.816 252.611 238.046 252.23C238.276 251.849 238.548 251.459 238.862 251.062C239.186 250.676 239.562 250.292 239.989 249.912C241.282 248.762 242.483 248.193 243.594 248.205C244.715 248.229 245.821 248.854 246.913 250.081L250.248 253.828L249.13 254.823L245.913 251.207C245.103 250.298 244.294 249.83 243.486 249.804C242.666 249.787 241.758 250.223 240.761 251.11C240.202 251.607 239.713 252.15 239.294 252.739C238.865 253.337 238.569 253.865 238.407 254.323L243.395 259.927L242.277 260.922L231.893 249.254L233.01 248.259Z" fill="#30291B"/>
<path d="M233.01 248.259L237.486 253.288C237.63 252.964 237.816 252.611 238.046 252.23C238.276 251.848 238.548 251.459 238.862 251.062C239.186 250.676 239.562 250.292 239.989 249.912C241.282 248.761 242.483 248.192 243.594 248.205C244.715 248.229 245.821 248.854 246.913 250.081L250.248 253.828L249.13 254.823L245.913 251.207C245.103 250.298 244.294 249.83 243.486 249.804C242.666 249.787 241.758 250.223 240.761 251.11C240.202 251.607 239.713 252.15 239.294 252.739C238.865 253.337 238.569 253.865 238.407 254.323L243.395 259.927L242.277 260.922L231.893 249.254L233.01 248.259Z" fill="#30291B"/>
<path d="M228.927 251.721L237.884 264.519L236.64 265.389L228.895 254.322L228.709 270.939L227.538 271.759L218.581 258.962L219.825 258.092L227.432 268.96L227.666 252.604L228.927 251.721Z" fill="#30291B"/>
<path d="M228.928 251.721L237.884 264.519L236.64 265.389L228.895 254.322L228.71 270.939L227.538 271.759L218.582 258.962L219.826 258.091L227.432 268.96L227.666 252.604L228.928 251.721Z" fill="#30291B"/>
<path d="M228.927 251.721L237.884 264.519L236.64 265.389L228.895 254.322L228.709 270.939L227.538 271.759L218.581 258.962L219.825 258.092L227.432 268.96L227.666 252.604L228.927 251.721Z" fill="#30291B"/>
<path d="M195.67 267.206L196.984 271.359L196.354 271.558C195.963 271.682 195.671 271.951 195.479 272.365C195.273 272.784 195.178 273.383 195.194 274.163C195.2 274.961 195.332 275.988 195.591 277.245C195.836 278.505 196.216 280.047 196.73 281.868L197.926 286.013L189.011 288.832L184.712 275.239L182.929 275.803L181.616 271.65L182.917 271.238L183.819 274.091L195.272 270.47L194.37 267.617L195.67 267.206ZM194.257 272.221L186.181 274.775L190.068 287.067L196.172 285.137L195.314 282.132C194.759 280.23 194.357 278.619 194.108 277.298C193.85 275.995 193.737 274.931 193.768 274.106C193.804 273.295 193.967 272.667 194.257 272.221Z" fill="#30291B"/>
<path d="M195.67 267.205L196.984 271.359L196.355 271.558C195.963 271.682 195.671 271.951 195.479 272.365C195.273 272.784 195.178 273.383 195.194 274.163C195.2 274.961 195.333 275.988 195.592 277.244C195.836 278.505 196.216 280.046 196.731 281.868L197.926 286.013L189.011 288.832L184.713 275.239L182.93 275.803L181.616 271.65L182.917 271.238L183.819 274.091L195.272 270.469L194.37 267.617L195.67 267.205ZM194.257 272.221L186.181 274.775L190.068 287.067L196.172 285.137L195.314 282.131C194.759 280.23 194.357 278.619 194.109 277.298C193.851 275.995 193.737 274.931 193.768 274.106C193.804 273.295 193.967 272.666 194.257 272.221Z" fill="#30291B"/>
<path d="M195.67 267.206L196.984 271.359L196.354 271.558C195.963 271.682 195.671 271.951 195.479 272.365C195.273 272.784 195.178 273.383 195.194 274.163C195.2 274.961 195.332 275.988 195.591 277.245C195.836 278.505 196.216 280.047 196.73 281.868L197.926 286.013L189.011 288.832L184.712 275.239L182.929 275.803L181.616 271.65L182.917 271.238L183.819 274.091L195.272 270.47L194.37 267.617L195.67 267.206ZM194.257 272.221L186.181 274.775L190.068 287.067L196.172 285.137L195.314 282.132C194.759 280.23 194.357 278.619 194.108 277.298C193.85 275.995 193.737 274.931 193.768 274.106C193.804 273.295 193.967 272.667 194.257 272.221Z" fill="#30291B"/>
<path d="M174.147 276.018C175.229 275.82 176.249 275.857 177.209 276.129C178.168 276.401 179.032 276.847 179.801 277.466C180.573 278.101 181.217 278.848 181.732 279.708C182.25 280.582 182.598 281.51 182.778 282.491C182.965 283.515 182.963 284.522 182.771 285.512C182.581 286.515 182.228 287.437 181.711 288.277C181.182 289.134 180.515 289.853 179.712 290.432C178.911 291.026 177.998 291.416 176.974 291.603C175.892 291.801 174.87 291.757 173.908 291.471C172.946 291.184 172.086 290.723 171.329 290.086C170.557 289.452 169.913 288.705 169.398 287.845C168.883 286.985 168.537 286.071 168.361 285.105C168.173 284.08 168.174 283.066 168.363 282.062C168.555 281.073 168.909 280.151 169.423 279.297C169.941 278.457 170.601 277.747 171.405 277.168C172.208 276.588 173.122 276.205 174.147 276.018ZM181.263 282.768C181.11 281.931 180.825 281.148 180.408 280.419C179.994 279.705 179.48 279.091 178.864 278.577C178.251 278.078 177.565 277.711 176.807 277.477C176.036 277.26 175.233 277.228 174.396 277.381C173.516 277.542 172.763 277.866 172.136 278.353C171.498 278.858 170.989 279.458 170.609 280.153C170.217 280.866 169.961 281.629 169.842 282.441C169.722 283.253 169.734 284.056 169.879 284.849C170.032 285.686 170.316 286.462 170.73 287.176C171.144 287.891 171.666 288.504 172.296 289.015C172.912 289.528 173.597 289.895 174.353 290.114C175.109 290.334 175.905 290.367 176.742 290.214C177.608 290.056 178.361 289.732 179.002 289.242C179.629 288.755 180.138 288.155 180.529 287.442C180.909 286.747 181.166 285.991 181.3 285.177C181.42 284.364 181.408 283.562 181.263 282.768Z" fill="#30291B"/>
<path d="M174.147 276.018C175.229 275.82 176.25 275.857 177.209 276.129C178.168 276.401 179.032 276.847 179.802 277.467C180.574 278.101 181.217 278.848 181.732 279.708C182.25 280.583 182.598 281.51 182.778 282.491C182.965 283.516 182.963 284.523 182.771 285.512C182.582 286.516 182.228 287.437 181.711 288.278C181.182 289.135 180.516 289.853 179.712 290.432C178.911 291.026 177.998 291.416 176.974 291.604C175.892 291.802 174.87 291.757 173.908 291.471C172.946 291.185 172.087 290.723 171.329 290.086C170.557 289.452 169.914 288.705 169.398 287.845C168.883 286.985 168.537 286.071 168.361 285.105C168.173 284.08 168.174 283.066 168.364 282.063C168.556 281.073 168.909 280.151 169.424 279.297C169.941 278.457 170.601 277.747 171.405 277.168C172.209 276.589 173.123 276.205 174.147 276.018ZM181.263 282.768C181.11 281.932 180.825 281.149 180.409 280.42C179.995 279.705 179.48 279.091 178.864 278.577C178.251 278.078 177.565 277.712 176.807 277.477C176.036 277.26 175.233 277.228 174.396 277.381C173.516 277.542 172.763 277.866 172.136 278.354C171.498 278.858 170.989 279.458 170.609 280.154C170.217 280.866 169.962 281.629 169.842 282.441C169.722 283.253 169.735 284.056 169.88 284.849C170.033 285.686 170.316 286.462 170.73 287.176C171.144 287.891 171.666 288.504 172.296 289.015C172.912 289.528 173.598 289.895 174.353 290.115C175.109 290.334 175.906 290.368 176.742 290.215C177.608 290.056 178.361 289.732 179.002 289.242C179.629 288.755 180.138 288.155 180.53 287.442C180.909 286.747 181.166 285.992 181.301 285.177C181.421 284.365 181.408 283.562 181.263 282.768Z" fill="#30291B"/>
<path d="M174.147 276.018C175.229 275.82 176.249 275.857 177.209 276.129C178.168 276.401 179.032 276.847 179.801 277.466C180.573 278.101 181.217 278.848 181.732 279.708C182.25 280.582 182.598 281.51 182.778 282.491C182.965 283.515 182.963 284.522 182.771 285.512C182.581 286.515 182.228 287.437 181.711 288.277C181.182 289.134 180.515 289.853 179.712 290.432C178.911 291.026 177.998 291.416 176.974 291.603C175.892 291.801 174.87 291.757 173.908 291.471C172.946 291.184 172.086 290.723 171.329 290.086C170.557 289.452 169.913 288.705 169.398 287.845C168.883 286.985 168.537 286.071 168.361 285.105C168.173 284.08 168.174 283.066 168.363 282.062C168.555 281.073 168.909 280.151 169.423 279.297C169.941 278.457 170.601 277.747 171.405 277.168C172.208 276.588 173.122 276.205 174.147 276.018ZM181.263 282.768C181.11 281.931 180.825 281.148 180.408 280.419C179.994 279.705 179.48 279.091 178.864 278.577C178.251 278.078 177.565 277.711 176.807 277.477C176.036 277.26 175.233 277.228 174.396 277.381C173.516 277.542 172.763 277.866 172.136 278.353C171.498 278.858 170.989 279.458 170.609 280.153C170.217 280.866 169.961 281.629 169.842 282.441C169.722 283.253 169.734 284.056 169.879 284.849C170.032 285.686 170.316 286.462 170.73 287.176C171.144 287.891 171.666 288.504 172.296 289.015C172.912 289.528 173.597 289.895 174.353 290.114C175.109 290.334 175.905 290.367 176.742 290.214C177.608 290.056 178.361 289.732 179.002 289.242C179.629 288.755 180.138 288.155 180.529 287.442C180.909 286.747 181.166 285.991 181.3 285.177C181.42 284.364 181.408 283.562 181.263 282.768Z" fill="#30291B"/>
<path d="M164.484 277.668L165.388 293.262L153.615 293.944L152.712 278.35L154.249 278.261L155.074 292.493L163.771 291.99L162.947 277.757L164.484 277.668Z" fill="#30291B"/>
<path d="M164.484 277.669L165.388 293.262L153.615 293.945L152.712 278.351L154.249 278.262L155.074 292.494L163.771 291.99L162.947 277.758L164.484 277.669Z" fill="#30291B"/>
<path d="M164.484 277.668L165.388 293.262L153.615 293.944L152.712 278.35L154.249 278.261L155.074 292.493L163.771 291.99L162.947 277.757L164.484 277.668Z" fill="#30291B"/>
<path d="M142.826 277.865C143.924 277.937 144.904 278.222 145.768 278.719C146.632 279.217 147.362 279.86 147.956 280.649C148.55 281.452 148.992 282.334 149.282 283.293C149.571 284.268 149.682 285.252 149.617 286.248C149.549 287.287 149.301 288.263 148.874 289.175C148.445 290.102 147.878 290.91 147.171 291.599C146.449 292.301 145.627 292.835 144.707 293.201C143.785 293.581 142.805 293.737 141.766 293.669C140.668 293.597 139.688 293.305 138.825 292.792C137.962 292.28 137.241 291.623 136.662 290.82C136.068 290.017 135.626 289.136 135.336 288.176C135.046 287.216 134.934 286.246 134.998 285.265C135.066 284.226 135.315 283.243 135.743 282.316C136.17 281.403 136.738 280.595 137.445 279.892C138.152 279.204 138.966 278.677 139.886 278.311C140.807 277.945 141.787 277.796 142.826 277.865ZM148.08 286.147C148.136 285.298 148.051 284.469 147.825 283.661C147.598 282.867 147.248 282.146 146.776 281.497C146.304 280.864 145.728 280.341 145.049 279.929C144.355 279.53 143.584 279.303 142.735 279.248C141.842 279.189 141.033 279.319 140.306 279.639C139.564 279.973 138.924 280.43 138.386 281.012C137.833 281.608 137.399 282.285 137.084 283.043C136.77 283.802 136.586 284.583 136.533 285.388C136.478 286.237 136.563 287.058 136.79 287.852C137.017 288.646 137.374 289.368 137.861 290.017C138.333 290.666 138.908 291.188 139.588 291.586C140.267 291.983 141.031 292.21 141.88 292.265C142.758 292.323 143.568 292.193 144.309 291.874C145.035 291.554 145.676 291.096 146.229 290.501C146.767 289.919 147.201 289.249 147.53 288.492C147.844 287.733 148.028 286.952 148.08 286.147Z" fill="#30291B"/>
<path d="M142.826 277.865C143.924 277.937 144.905 278.222 145.768 278.719C146.632 279.217 147.362 279.86 147.957 280.649C148.551 281.452 148.993 282.334 149.282 283.293C149.571 284.268 149.683 285.252 149.617 286.248C149.549 287.287 149.301 288.263 148.874 289.175C148.446 290.102 147.878 290.91 147.171 291.599C146.449 292.301 145.628 292.835 144.707 293.201C143.785 293.581 142.805 293.737 141.766 293.669C140.668 293.597 139.688 293.305 138.825 292.792C137.962 292.28 137.241 291.623 136.662 290.82C136.068 290.017 135.626 289.136 135.336 288.176C135.047 287.216 134.934 286.246 134.998 285.265C135.067 284.226 135.315 283.243 135.743 282.316C136.171 281.403 136.738 280.595 137.446 279.892C138.152 279.204 138.966 278.677 139.887 278.311C140.807 277.945 141.787 277.796 142.826 277.865ZM148.081 286.147C148.136 285.298 148.051 284.469 147.825 283.661C147.598 282.867 147.248 282.146 146.777 281.497C146.304 280.864 145.728 280.341 145.05 279.929C144.356 279.53 143.584 279.303 142.735 279.248C141.843 279.189 141.033 279.319 140.306 279.639C139.564 279.973 138.924 280.43 138.386 281.012C137.833 281.608 137.399 282.285 137.084 283.043C136.77 283.802 136.586 284.583 136.534 285.388C136.478 286.237 136.563 287.058 136.791 287.852C137.018 288.646 137.375 289.368 137.861 290.017C138.333 290.666 138.908 291.188 139.588 291.586C140.267 291.983 141.031 292.21 141.88 292.265C142.758 292.323 143.568 292.193 144.309 291.874C145.036 291.554 145.676 291.096 146.229 290.501C146.767 289.919 147.201 289.249 147.53 288.492C147.844 287.733 148.028 286.952 148.081 286.147Z" fill="#30291B"/>
<path d="M142.826 277.865C143.924 277.937 144.904 278.222 145.768 278.719C146.632 279.217 147.362 279.86 147.956 280.649C148.55 281.452 148.992 282.334 149.282 283.293C149.571 284.268 149.682 285.252 149.617 286.248C149.549 287.287 149.301 288.263 148.874 289.175C148.445 290.102 147.878 290.91 147.171 291.599C146.449 292.301 145.627 292.835 144.707 293.201C143.785 293.581 142.805 293.737 141.766 293.669C140.668 293.597 139.688 293.305 138.825 292.792C137.962 292.28 137.241 291.623 136.662 290.82C136.068 290.017 135.626 289.136 135.336 288.176C135.046 287.216 134.934 286.246 134.998 285.265C135.066 284.226 135.315 283.243 135.743 282.316C136.17 281.403 136.738 280.595 137.445 279.892C138.152 279.204 138.966 278.677 139.886 278.311C140.807 277.945 141.787 277.796 142.826 277.865ZM148.08 286.147C148.136 285.298 148.051 284.469 147.825 283.661C147.598 282.867 147.248 282.146 146.776 281.497C146.304 280.864 145.728 280.341 145.049 279.929C144.355 279.53 143.584 279.303 142.735 279.248C141.842 279.189 141.033 279.319 140.306 279.639C139.564 279.973 138.924 280.43 138.386 281.012C137.833 281.608 137.399 282.285 137.084 283.043C136.77 283.802 136.586 284.583 136.533 285.388C136.478 286.237 136.563 287.058 136.79 287.852C137.017 288.646 137.374 289.368 137.861 290.017C138.333 290.666 138.908 291.188 139.588 291.586C140.267 291.983 141.031 292.21 141.88 292.265C142.758 292.323 143.568 292.193 144.309 291.874C145.035 291.554 145.676 291.096 146.229 290.501C146.767 289.919 147.201 289.249 147.53 288.492C147.844 287.733 148.028 286.952 148.08 286.147Z" fill="#30291B"/>
<path d="M122.669 275.144L119.998 289.148L126.265 290.343L126.97 287.118C127.446 285.014 127.932 283.285 128.429 281.932C128.926 280.578 129.461 279.538 130.032 278.811C130.601 278.098 131.221 277.626 131.892 277.396C132.561 277.18 133.313 277.152 134.148 277.311L133.893 278.651C133.331 278.544 132.806 278.593 132.319 278.799C131.832 279.005 131.368 279.439 130.929 280.101C130.489 280.764 130.061 281.713 129.647 282.948C129.215 284.194 128.783 285.792 128.352 287.74L127.414 291.951L118.251 290.203L121.178 274.86L122.669 275.144Z" fill="#30291B"/>
<path d="M122.67 275.144L119.999 289.148L126.266 290.343L126.97 287.118C127.446 285.014 127.933 283.285 128.43 281.932C128.927 280.578 129.461 279.538 130.033 278.811C130.602 278.098 131.222 277.626 131.893 277.396C132.561 277.18 133.313 277.152 134.149 277.311L133.893 278.651C133.331 278.544 132.807 278.593 132.32 278.799C131.833 279.005 131.369 279.439 130.929 280.101C130.489 280.764 130.062 281.713 129.647 282.948C129.215 284.194 128.784 285.792 128.352 287.74L127.415 291.951L118.252 290.203L121.178 274.86L122.67 275.144Z" fill="#30291B"/>
<path d="M122.669 275.144L119.998 289.148L126.265 290.343L126.97 287.118C127.446 285.014 127.932 283.285 128.429 281.932C128.926 280.578 129.461 279.538 130.032 278.811C130.601 278.098 131.221 277.626 131.892 277.396C132.561 277.18 133.313 277.152 134.148 277.311L133.893 278.651C133.331 278.544 132.806 278.593 132.319 278.799C131.832 279.005 131.368 279.439 130.929 280.101C130.489 280.764 130.061 281.713 129.647 282.948C129.215 284.194 128.783 285.792 128.352 287.74L127.414 291.951L118.251 290.203L121.178 274.86L122.669 275.144Z" fill="#30291B"/>
<path d="M102.086 285.362L106.852 270.486L108.298 270.949L106.069 277.905L114.89 280.731L117.118 273.775L118.585 274.245L113.819 289.12L112.352 288.651L114.474 282.03L105.653 279.204L103.532 285.825L102.086 285.362Z" fill="#30291B"/>
<path d="M102.087 285.361L106.853 270.486L108.298 270.949L106.07 277.905L114.89 280.731L117.119 273.775L118.585 274.245L113.82 289.12L112.353 288.65L114.474 282.03L105.654 279.204L103.533 285.824L102.087 285.361Z" fill="#30291B"/>
<path d="M102.086 285.362L106.852 270.486L108.298 270.949L106.069 277.905L114.89 280.731L117.118 273.775L118.585 274.245L113.819 289.12L112.352 288.651L114.474 282.03L105.653 279.204L103.532 285.825L102.086 285.362Z" fill="#30291B"/>
<path d="M103.277 269.152L96.6602 283.302L95.2851 282.659L101.007 270.422L86.5165 278.558L85.2211 277.952L91.8376 263.803L93.2127 264.446L87.5933 276.463L101.882 268.5L103.277 269.152Z" fill="#30291B"/>
<path d="M103.277 269.152L96.6605 283.302L95.2854 282.659L101.007 270.422L86.5167 278.558L85.2214 277.952L91.8379 263.803L93.213 264.446L87.5936 276.463L101.882 268.5L103.277 269.152Z" fill="#30291B"/>
<path d="M103.277 269.152L96.6602 283.302L95.2851 282.659L101.007 270.422L86.5165 278.558L85.2211 277.952L91.8376 263.803L93.2127 264.446L87.5933 276.463L101.882 268.5L103.277 269.152Z" fill="#30291B"/>
<path d="M72.1006 268.586L76.8507 271.488L84.2814 259.321L85.5956 260.124L78.1649 272.29L82.915 275.192L82.204 276.356L71.3896 269.751L72.1006 268.586Z" fill="#30291B"/>
<path d="M72.101 268.586L76.8511 271.488L84.2819 259.321L85.5961 260.124L78.1654 272.29L82.9155 275.191L82.2045 276.355L71.3901 269.75L72.101 268.586Z" fill="#30291B"/>
<path d="M72.1006 268.586L76.8507 271.488L84.2814 259.321L85.5956 260.124L78.1649 272.29L82.915 275.192L82.204 276.356L71.3896 269.751L72.1006 268.586Z" fill="#30291B"/>
<path d="M69.0295 250.167L69.8559 249.082L78.2049 255.44L68.7421 267.867L60.5505 261.629L61.3769 260.544L68.3432 265.849L71.7552 261.368L65.6815 256.743L66.4679 255.71L72.5415 260.335L76.1534 255.592L69.0295 250.167Z" fill="#30291B"/>
<path d="M69.0298 250.167L69.8561 249.082L78.2052 255.439L68.7423 267.867L60.5508 261.629L61.3771 260.544L68.3434 265.848L71.7554 261.368L65.6818 256.743L66.4681 255.71L72.5417 260.335L76.1536 255.592L69.0298 250.167Z" fill="#30291B"/>
<path d="M69.0295 250.167L69.8559 249.082L78.2049 255.44L68.7421 267.867L60.5505 261.629L61.3769 260.544L68.3432 265.849L71.7552 261.368L65.6815 256.743L66.4679 255.71L72.5415 260.335L76.1534 255.592L69.0295 250.167Z" fill="#30291B"/>
<path d="M60.4006 240.336L50.5797 250.67L55.2043 255.065L57.5415 252.734C59.0799 251.221 60.4242 250.03 61.5743 249.161C62.7245 248.291 63.7367 247.705 64.6108 247.403C65.4748 247.111 66.2513 247.05 66.9403 247.219C67.6192 247.399 68.267 247.782 68.8836 248.368L67.9439 249.357C67.5293 248.963 67.0615 248.72 66.5405 248.63C66.0195 248.539 65.3947 248.654 64.6663 248.973C63.9378 249.293 63.0653 249.859 62.0486 250.674C61.0111 251.489 59.7841 252.599 58.3674 254.004L55.3012 257.039L48.5397 250.613L59.3003 239.29L60.4006 240.336Z" fill="#30291B"/>
<path d="M60.4011 240.336L50.5802 250.67L55.2048 255.065L57.542 252.734C59.0804 251.221 60.4247 250.03 61.5748 249.161C62.725 248.291 63.7371 247.705 64.6113 247.403C65.4753 247.111 66.2518 247.05 66.9408 247.219C67.6197 247.399 68.2675 247.782 68.8841 248.368L67.9444 249.357C67.5298 248.963 67.062 248.72 66.541 248.63C66.02 248.539 65.3952 248.654 64.6668 248.973C63.9383 249.293 63.0658 249.86 62.049 250.674C61.0116 251.489 59.7846 252.599 58.3679 254.004L55.3017 257.039L48.5402 250.613L59.3008 239.291L60.4011 240.336Z" fill="#30291B"/>
<path d="M60.4006 240.336L50.5797 250.67L55.2043 255.065L57.5415 252.734C59.0799 251.221 60.4242 250.03 61.5743 249.161C62.7245 248.291 63.7367 247.705 64.6108 247.403C65.4748 247.111 66.2513 247.05 66.9403 247.219C67.6192 247.399 68.267 247.782 68.8836 248.368L67.9439 249.357C67.5293 248.963 67.0615 248.72 66.5405 248.63C66.0195 248.539 65.3947 248.654 64.6663 248.973C63.9378 249.293 63.0653 249.859 62.0486 250.674C61.0111 251.489 59.7841 252.599 58.3674 254.004L55.3012 257.039L48.5397 250.613L59.3003 239.29L60.4006 240.336Z" fill="#30291B"/>
<path d="M57.4629 237.311L45.5341 247.395L44.5399 246.219L49.177 242.299L46.6205 239.275C45.8914 238.412 45.4366 237.568 45.2561 236.741C45.0756 235.914 45.1415 235.128 45.4536 234.384C45.7562 233.629 46.2716 232.944 46.9996 232.328C47.6605 231.77 48.3893 231.394 49.186 231.2C49.9828 231.007 50.7803 231.053 51.5785 231.338C52.3768 231.624 53.131 232.187 53.8411 233.027L57.4629 237.311ZM55.4774 236.973L52.9777 234.016C52.419 233.355 51.8461 232.927 51.2588 232.732C50.6603 232.547 50.0837 232.535 49.529 232.696C48.9536 232.856 48.4419 233.126 47.9938 233.504C47.5234 233.902 47.1576 234.355 46.8964 234.864C46.6352 235.373 46.5518 235.933 46.6463 236.545C46.7407 237.156 47.0862 237.815 47.6827 238.521L50.1682 241.461L55.4774 236.973Z" fill="#30291B"/>
<path d="M57.4631 237.311L45.5343 247.395L44.5401 246.219L49.1772 242.299L46.6207 239.275C45.8916 238.412 45.4368 237.568 45.2564 236.741C45.0759 235.914 45.1417 235.128 45.4538 234.384C45.7565 233.629 46.2718 232.944 46.9999 232.328C47.6607 231.77 48.3895 231.394 49.1863 231.2C49.983 231.007 50.7805 231.053 51.5788 231.338C52.377 231.624 53.1312 232.187 53.8414 233.027L57.4631 237.311ZM55.4776 236.973L52.9779 234.016C52.4193 233.355 51.8463 232.927 51.259 232.732C50.6605 232.547 50.0839 232.535 49.5292 232.696C48.9538 232.856 48.4421 233.126 47.9941 233.504C47.5236 233.902 47.1578 234.355 46.8966 234.864C46.6354 235.373 46.5521 235.933 46.6465 236.545C46.741 237.156 47.0865 237.815 47.683 238.521L50.1685 241.461L55.4776 236.973Z" fill="#30291B"/>
<path d="M57.4629 237.311L45.5341 247.395L44.5399 246.219L49.177 242.299L46.6205 239.275C45.8914 238.412 45.4366 237.568 45.2561 236.741C45.0756 235.914 45.1415 235.128 45.4536 234.384C45.7562 233.629 46.2716 232.944 46.9996 232.328C47.6605 231.77 48.3893 231.394 49.186 231.2C49.9828 231.007 50.7803 231.053 51.5785 231.338C52.3768 231.624 53.131 232.187 53.8411 233.027L57.4629 237.311ZM55.4774 236.973L52.9777 234.016C52.419 233.355 51.8461 232.927 51.2588 232.732C50.6603 232.547 50.0837 232.535 49.529 232.696C48.9536 232.856 48.4419 233.126 47.9938 233.504C47.5234 233.902 47.1576 234.355 46.8964 234.864C46.6352 235.373 46.5518 235.933 46.6463 236.545C46.7407 237.156 47.0862 237.815 47.6827 238.521L50.1682 241.461L55.4774 236.973Z" fill="#30291B"/>
<path d="M28.9001 225.19L41.9227 216.565L42.761 217.83L36.6715 221.864L41.786 229.585L47.8754 225.552L48.7258 226.836L35.7032 235.461L34.8528 234.177L40.6488 230.339L35.5343 222.617L29.7384 226.456L28.9001 225.19Z" fill="#30291B"/>
<path d="M28.9001 225.19L41.9227 216.564L42.761 217.83L36.6715 221.863L41.786 229.585L47.8754 225.552L48.7258 226.836L35.7032 235.461L34.8528 234.177L40.6488 230.338L35.5343 222.616L29.7384 226.455L28.9001 225.19Z" fill="#30291B"/>
<path d="M28.9001 225.19L41.9227 216.565L42.761 217.83L36.6715 221.864L41.786 229.585L47.8754 225.552L48.7258 226.836L35.7032 235.461L34.8528 234.177L40.6488 230.339L35.5343 222.617L29.7384 226.456L28.9001 225.19Z" fill="#30291B"/>
<path d="M40.1004 213.662L26.0509 220.488L25.3779 219.103L30.8394 216.45L29.1089 212.888C28.6154 211.872 28.3832 210.941 28.4125 210.095C28.4418 209.25 28.6996 208.505 29.1858 207.861C29.6655 207.204 30.3341 206.667 31.1916 206.25C31.97 205.872 32.769 205.688 33.5889 205.697C34.4087 205.706 35.1702 205.948 35.8732 206.422C36.5762 206.895 37.1681 207.627 37.6488 208.616L40.1004 213.662ZM38.26 212.844L36.5679 209.362C36.1897 208.583 35.7401 208.027 35.2192 207.693C34.685 207.366 34.1292 207.212 33.5517 207.232C32.9547 207.244 32.3923 207.379 31.8646 207.635C31.3105 207.905 30.8441 208.254 30.4654 208.682C30.0866 209.111 29.8675 209.633 29.808 210.249C29.7485 210.865 29.9206 211.588 30.3244 212.42L32.0069 215.882L38.26 212.844ZM34.2935 201.71L20.2637 208.527L19.6004 207.161L33.6301 200.345L34.2935 201.71Z" fill="#30291B"/>
<path d="M40.1004 213.662L26.0509 220.488L25.3779 219.103L30.8394 216.45L29.1089 212.888C28.6154 211.872 28.3832 210.941 28.4125 210.095C28.4418 209.25 28.6996 208.505 29.1858 207.861C29.6655 207.204 30.3341 206.667 31.1916 206.25C31.97 205.872 32.769 205.688 33.5889 205.697C34.4087 205.706 35.1702 205.948 35.8732 206.422C36.5762 206.895 37.1681 207.627 37.6488 208.616L40.1004 213.662ZM38.26 212.844L36.5679 209.362C36.1897 208.583 35.7401 208.027 35.2192 207.693C34.685 207.366 34.1292 207.212 33.5517 207.232C32.9547 207.244 32.3923 207.379 31.8646 207.635C31.3105 207.905 30.8441 208.254 30.4654 208.682C30.0866 209.111 29.8675 209.633 29.808 210.249C29.7485 210.865 29.9206 211.588 30.3244 212.42L32.0069 215.882L38.26 212.844ZM34.2935 201.71L20.2637 208.527L19.6004 207.161L33.6301 200.345L34.2935 201.71Z" fill="#30291B"/>
<path d="M40.1004 213.662L26.0509 220.488L25.3779 219.103L30.8394 216.45L29.1089 212.888C28.6154 211.872 28.3832 210.941 28.4125 210.095C28.4418 209.25 28.6996 208.505 29.1858 207.861C29.6655 207.204 30.3341 206.667 31.1916 206.25C31.97 205.872 32.769 205.688 33.5889 205.697C34.4087 205.706 35.1702 205.948 35.8732 206.422C36.5762 206.895 37.1681 207.627 37.6488 208.616L40.1004 213.662ZM38.26 212.844L36.5679 209.362C36.1897 208.583 35.7401 208.027 35.2192 207.693C34.685 207.366 34.1292 207.212 33.5517 207.232C32.9547 207.244 32.3923 207.379 31.8646 207.635C31.3105 207.905 30.8441 208.254 30.4654 208.682C30.0866 209.111 29.8675 209.633 29.808 210.249C29.7485 210.865 29.9206 211.588 30.3244 212.42L32.0069 215.882L38.26 212.844ZM34.2935 201.71L20.2637 208.527L19.6004 207.161L33.6301 200.345L34.2935 201.71Z" fill="#30291B"/>
<path d="M32.4001 197.244L17.5613 202.122L17.0872 200.679L29.9197 196.461L14.0644 191.484L13.6178 190.125L28.4567 185.247L28.9307 186.689L16.3282 190.832L31.9192 195.781L32.4001 197.244ZM14.3287 196.515C14.5531 197.197 14.6457 197.808 14.6063 198.345C14.5485 198.874 14.3843 199.314 14.1138 199.665C13.8294 200.021 13.4805 200.275 13.0671 200.426L12.6892 199.277C13.0469 199.144 13.3263 198.89 13.5273 198.515C13.7237 198.126 13.6982 197.556 13.4509 196.803C13.2127 196.079 12.9132 195.614 12.5523 195.408C12.1775 195.207 11.7857 195.166 11.3771 195.285L10.9992 194.135C11.4218 194.012 11.8531 194.009 12.2933 194.127C12.7195 194.249 13.1126 194.506 13.4728 194.897C13.8144 195.279 14.0997 195.818 14.3287 196.515Z" fill="#30291B"/>
<path d="M32.4001 197.244L17.5613 202.122L17.0872 200.68L29.9197 196.462L14.0644 191.484L13.6178 190.125L28.4567 185.248L28.9307 186.69L16.3282 190.832L31.9192 195.781L32.4001 197.244ZM14.3287 196.515C14.5531 197.198 14.6457 197.808 14.6063 198.346C14.5485 198.874 14.3843 199.314 14.1138 199.666C13.8294 200.022 13.4805 200.275 13.0671 200.427L12.6892 199.277C13.0469 199.144 13.3263 198.89 13.5273 198.515C13.7237 198.127 13.6982 197.556 13.4509 196.804C13.2127 196.079 12.9132 195.614 12.5523 195.408C12.1775 195.207 11.7857 195.166 11.3771 195.285L10.9992 194.136C11.4218 194.012 11.8531 194.009 12.2933 194.127C12.7195 194.25 13.1126 194.506 13.4728 194.897C13.8144 195.279 14.0997 195.818 14.3287 196.515Z" fill="#30291B"/>
<path d="M32.4001 197.244L17.5613 202.122L17.0872 200.679L29.9197 196.461L14.0644 191.484L13.6178 190.125L28.4567 185.247L28.9307 186.689L16.3282 190.832L31.9192 195.781L32.4001 197.244ZM14.3287 196.515C14.5531 197.197 14.6457 197.808 14.6063 198.345C14.5485 198.874 14.3843 199.314 14.1138 199.665C13.8294 200.021 13.4805 200.275 13.0671 200.426L12.6892 199.277C13.0469 199.144 13.3263 198.89 13.5273 198.515C13.7237 198.126 13.6982 197.556 13.4509 196.803C13.2127 196.079 12.9132 195.614 12.5523 195.408C12.1775 195.207 11.7857 195.166 11.3771 195.285L10.9992 194.135C11.4218 194.012 11.8531 194.009 12.2933 194.127C12.7195 194.249 13.1126 194.506 13.4728 194.897C13.8144 195.279 14.0997 195.818 14.3287 196.515Z" fill="#30291B"/>
<path d="M24.1962 160.292L8.58186 160.714L8.54026 159.175L15.4897 158.987L15.4261 156.634L8.33165 151.456L8.28351 149.674L16.0074 155.342L23.8877 148.878L23.9388 150.77L16.8324 156.552L16.8972 158.949L24.1546 158.753L24.1962 160.292Z" fill="#30291B"/>
<path d="M24.1964 160.292L8.5821 160.714L8.5405 159.175L15.49 158.987L15.4264 156.634L8.33189 151.456L8.28375 149.674L16.0077 155.342L23.8879 148.878L23.9391 150.77L16.8327 156.552L16.8974 158.949L24.1548 158.753L24.1964 160.292Z" fill="#30291B"/>
<path d="M24.1962 160.292L8.58186 160.714L8.54026 159.175L15.4897 158.987L15.4261 156.634L8.33165 151.456L8.28351 149.674L16.0074 155.342L23.8877 148.878L23.9388 150.77L16.8324 156.552L16.8972 158.949L24.1546 158.753L24.1962 160.292Z" fill="#30291B"/>
<path d="M24.175 144.377L22.8813 144.272L22.9614 143.285C22.9887 142.949 22.9138 142.692 22.7368 142.516C22.561 142.325 22.2914 142.112 21.9279 141.877L20.5578 141.081L8.26512 146.771L8.40218 145.083L19.0579 140.253L9.24413 134.711L9.37407 133.11L22.7696 140.753C23.3452 141.094 23.7522 141.429 23.9904 141.757C24.2286 142.086 24.3251 142.527 24.2801 143.083L24.175 144.377Z" fill="#30291B"/>
<path d="M24.175 144.376L22.8813 144.271L22.9614 143.285C22.9887 142.948 22.9138 142.692 22.7368 142.516C22.561 142.325 22.2914 142.112 21.9279 141.876L20.5578 141.081L8.26512 146.771L8.40218 145.083L19.0579 140.253L9.24413 134.711L9.37407 133.11L22.7696 140.753C23.3452 141.094 23.7522 141.429 23.9904 141.757C24.2286 142.085 24.3251 142.527 24.2801 143.083L24.175 144.376Z" fill="#30291B"/>
<path d="M24.175 144.377L22.8813 144.272L22.9614 143.285C22.9887 142.949 22.9138 142.692 22.7368 142.516C22.561 142.325 22.2914 142.112 21.9279 141.877L20.5578 141.081L8.26512 146.771L8.40218 145.083L19.0579 140.253L9.24413 134.711L9.37407 133.11L22.7696 140.753C23.3452 141.094 23.7522 141.429 23.9904 141.757C24.2286 142.086 24.3251 142.527 24.2801 143.083L24.175 144.377Z" fill="#30291B"/>
<path d="M25.1908 132.963L9.8363 130.095L11.0238 123.737C11.1477 123.074 11.3978 122.494 11.774 121.997C12.153 121.486 12.618 121.073 13.1692 120.758C13.706 120.441 14.2842 120.22 14.904 120.097C15.5094 119.972 16.1076 119.964 16.6987 120.074C17.5349 120.231 18.2929 120.566 18.9726 121.081C19.6405 121.579 20.1432 122.202 20.4807 122.952C20.8182 123.701 20.9035 124.523 20.7365 125.417L19.8075 130.391L25.4735 131.449L25.1908 132.963ZM18.4667 130.14L19.3836 125.231C19.4967 124.626 19.4292 124.068 19.1811 123.559C18.9329 123.051 18.565 122.624 18.0774 122.279C17.5897 121.934 17.0359 121.704 16.416 121.588C15.7816 121.47 15.1708 121.505 14.5835 121.694C13.9962 121.882 13.5067 122.186 13.1151 122.606C12.7117 123.008 12.4576 123.49 12.3525 124.052L11.4599 128.831L18.4667 130.14Z" fill="#30291B"/>
<path d="M25.191 132.962L9.83654 130.094L11.0241 123.736C11.148 123.073 11.398 122.493 11.7743 121.997C12.1532 121.485 12.6183 121.072 13.1695 120.758C13.7062 120.44 14.2845 120.22 14.9043 120.097C15.5096 119.971 16.1079 119.964 16.699 120.074C17.5352 120.23 18.2931 120.566 18.9728 121.081C19.6408 121.578 20.1435 122.202 20.481 122.951C20.8185 123.701 20.9037 124.522 20.7368 125.416L19.8077 130.39L25.4738 131.449L25.191 132.962ZM18.4669 130.14L19.3838 125.231C19.4969 124.625 19.4294 124.068 19.1813 123.559C18.9332 123.05 18.5653 122.623 18.0776 122.279C17.59 121.934 17.0362 121.704 16.4162 121.588C15.7819 121.469 15.171 121.505 14.5837 121.693C13.9964 121.882 13.507 122.186 13.1153 122.605C12.712 123.007 12.4578 123.489 12.3528 124.052L11.4601 128.831L18.4669 130.14Z" fill="#30291B"/>
<path d="M25.1908 132.963L9.8363 130.095L11.0238 123.737C11.1477 123.074 11.3978 122.494 11.774 121.997C12.153 121.486 12.618 121.073 13.1692 120.758C13.706 120.441 14.2842 120.22 14.904 120.097C15.5094 119.972 16.1076 119.964 16.6987 120.074C17.5349 120.231 18.2929 120.566 18.9726 121.081C19.6405 121.579 20.1432 122.202 20.4807 122.952C20.8182 123.701 20.9035 124.523 20.7365 125.417L19.8075 130.391L25.4735 131.449L25.1908 132.963ZM18.4667 130.14L19.3836 125.231C19.4967 124.626 19.4292 124.068 19.1811 123.559C18.9329 123.051 18.565 122.624 18.0774 122.279C17.5897 121.934 17.0359 121.704 16.416 121.588C15.7816 121.47 15.1708 121.505 14.5835 121.694C13.9962 121.882 13.5067 122.186 13.1151 122.606C12.7117 123.008 12.4576 123.49 12.3525 124.052L11.4599 128.831L18.4667 130.14Z" fill="#30291B"/>
<path d="M19.6982 119.155C18.786 118.878 17.9418 118.453 17.1655 117.879C16.3795 117.288 15.7203 116.582 15.1879 115.761C14.6415 114.936 14.2921 114.017 14.1397 113.005C13.9732 111.989 14.0605 110.92 14.4016 109.797C14.8066 108.464 15.4606 107.421 16.3637 106.668C17.2571 105.897 18.2491 105.432 19.3398 105.273L19.7038 106.648C18.9461 106.771 18.3033 107.02 17.7752 107.396C17.233 107.768 16.7925 108.209 16.4535 108.719C16.1189 109.215 15.8684 109.737 15.7021 110.284C15.4293 111.182 15.3709 112.031 15.5268 112.829C15.6688 113.623 15.969 114.351 16.4275 115.011C16.8762 115.653 17.4362 116.207 18.1075 116.671C18.7647 117.131 19.4723 117.477 20.2301 117.707C21.058 117.958 21.8935 118.059 22.7366 118.008C23.5797 117.958 24.3727 117.77 25.1155 117.444C25.8444 117.113 26.4865 116.664 27.042 116.097C27.5877 115.512 27.9821 114.819 28.2251 114.02C28.3956 113.458 28.4722 112.853 28.4547 112.204C28.4373 111.555 28.3019 110.916 28.0484 110.287C27.7992 109.644 27.3987 109.07 26.8469 108.565L27.8493 107.536C28.4993 108.071 28.9859 108.74 29.309 109.543C29.6321 110.347 29.8055 111.189 29.8291 112.07C29.857 112.936 29.7559 113.749 29.5256 114.507C29.2144 115.531 28.7113 116.405 28.0162 117.129C27.3071 117.849 26.4917 118.413 25.5701 118.823C24.6388 119.215 23.6658 119.44 22.6514 119.5C21.6228 119.555 20.6385 119.44 19.6982 119.155Z" fill="#30291B"/>
<path d="M19.6982 119.154C18.786 118.877 17.9418 118.452 17.1655 117.879C16.3795 117.288 15.7203 116.582 15.1879 115.761C14.6415 114.936 14.2921 114.017 14.1397 113.005C13.9732 111.989 14.0605 110.919 14.4016 109.797C14.8066 108.464 15.4606 107.421 16.3637 106.668C17.2571 105.897 18.2491 105.432 19.3398 105.273L19.7038 106.648C18.9461 106.77 18.3033 107.02 17.7752 107.396C17.233 107.768 16.7925 108.209 16.4535 108.719C16.1189 109.215 15.8684 109.737 15.7021 110.284C15.4293 111.182 15.3709 112.03 15.5268 112.829C15.6688 113.623 15.969 114.35 16.4275 115.011C16.8762 115.653 17.4362 116.206 18.1075 116.671C18.7647 117.131 19.4723 117.476 20.2301 117.707C21.058 117.958 21.8935 118.059 22.7366 118.008C23.5797 117.958 24.3727 117.769 25.1155 117.443C25.8444 117.113 26.4865 116.664 27.042 116.097C27.5877 115.512 27.9821 114.819 28.2251 114.019C28.3956 113.458 28.4722 112.853 28.4547 112.204C28.4373 111.555 28.3019 110.916 28.0484 110.287C27.7992 109.644 27.3987 109.07 26.8469 108.565L27.8493 107.536C28.4993 108.071 28.9859 108.74 29.309 109.543C29.6321 110.346 29.8055 111.188 29.8291 112.069C29.857 112.936 29.7559 113.749 29.5256 114.506C29.2144 115.531 28.7113 116.405 28.0162 117.129C27.3071 117.848 26.4917 118.413 25.5701 118.823C24.6388 119.214 23.6658 119.44 22.6514 119.5C21.6228 119.555 20.6385 119.44 19.6982 119.154Z" fill="#30291B"/>
<path d="M19.6982 119.155C18.786 118.878 17.9418 118.453 17.1655 117.879C16.3795 117.288 15.7203 116.582 15.1879 115.761C14.6415 114.936 14.2921 114.017 14.1397 113.005C13.9732 111.989 14.0605 110.92 14.4016 109.797C14.8066 108.464 15.4606 107.421 16.3637 106.668C17.2571 105.897 18.2491 105.432 19.3398 105.273L19.7038 106.648C18.9461 106.771 18.3033 107.02 17.7752 107.396C17.233 107.768 16.7925 108.209 16.4535 108.719C16.1189 109.215 15.8684 109.737 15.7021 110.284C15.4293 111.182 15.3709 112.031 15.5268 112.829C15.6688 113.623 15.969 114.351 16.4275 115.011C16.8762 115.653 17.4362 116.207 18.1075 116.671C18.7647 117.131 19.4723 117.477 20.2301 117.707C21.058 117.958 21.8935 118.059 22.7366 118.008C23.5797 117.958 24.3727 117.77 25.1155 117.444C25.8444 117.113 26.4865 116.664 27.042 116.097C27.5877 115.512 27.9821 114.819 28.2251 114.02C28.3956 113.458 28.4722 112.853 28.4547 112.204C28.4373 111.555 28.3019 110.916 28.0484 110.287C27.7992 109.644 27.3987 109.07 26.8469 108.565L27.8493 107.536C28.4993 108.071 28.9859 108.74 29.309 109.543C29.6321 110.347 29.8055 111.189 29.8291 112.07C29.857 112.936 29.7559 113.749 29.5256 114.507C29.2144 115.531 28.7113 116.405 28.0162 117.129C27.3071 117.849 26.4917 118.413 25.5701 118.823C24.6388 119.215 23.6658 119.44 22.6514 119.5C21.6228 119.555 20.6385 119.44 19.6982 119.155Z" fill="#30291B"/>
<path d="M50.193 73.7594L39.7748 66.4683L44.626 76.7644L44.0709 77.5575L32.7235 76.544L43.1416 83.835L42.2586 85.0968L29.4612 76.1406L30.3695 74.8429L42.6235 75.9806L37.383 64.8213L38.2786 63.5416L51.076 72.4977L50.193 73.7594Z" fill="#30291B"/>
<path d="M50.1932 73.7595L39.7751 66.4685L44.6262 76.7645L44.0712 77.5576L32.7237 76.5441L43.1418 83.8352L42.2589 85.0969L29.4615 76.1408L30.3697 74.843L42.6237 75.9808L37.3832 64.8214L38.2788 63.5417L51.0762 72.4978L50.1932 73.7595Z" fill="#30291B"/>
<path d="M50.193 73.7594L39.7748 66.4683L44.626 76.7644L44.0709 77.5575L32.7235 76.544L43.1416 83.835L42.2586 85.0968L29.4612 76.1406L30.3695 74.8429L42.6235 75.9806L37.383 64.8213L38.2786 63.5416L51.076 72.4977L50.193 73.7594Z" fill="#30291B"/>
<path d="M44.8988 55.9216L45.7723 54.9615L61.6938 60.6719L60.5983 61.8761L55.6235 60.0867L50.9009 65.278L53.1665 70.0455L52.0562 71.266L44.8988 55.9216ZM54.4916 59.5329L46.6626 56.6636L50.228 64.2197L54.4916 59.5329Z" fill="#30291B"/>
<path d="M44.8988 55.922L45.7723 54.9618L61.6938 60.6723L60.5983 61.8765L55.6235 60.0871L50.9009 65.2784L53.1665 70.0458L52.0562 71.2664L44.8988 55.922ZM54.4916 59.5332L46.6626 56.664L50.228 64.22L54.4916 59.5332Z" fill="#30291B"/>
<path d="M44.8988 55.9216L45.7723 54.9615L61.6938 60.6719L60.5983 61.8761L55.6235 60.0867L50.9009 65.278L53.1665 70.0455L52.0562 71.266L44.8988 55.9216ZM54.4916 59.5329L46.6626 56.6636L50.228 64.2197L54.4916 59.5329Z" fill="#30291B"/>
<path d="M56.5552 54.6026C55.9266 53.8858 55.4338 53.0792 55.0768 52.1828C54.7211 51.2657 54.5338 50.3181 54.5147 49.3399C54.486 48.3506 54.6739 47.386 55.0784 46.4459C55.4733 45.4949 56.1118 44.6325 56.994 43.8588C58.0415 42.9401 59.1474 42.3994 60.3117 42.2366C61.4774 42.0531 62.5654 42.1816 63.5759 42.6219L63.1594 43.9821C62.4513 43.6863 61.7737 43.5588 61.1266 43.5995C60.4699 43.6292 59.863 43.7714 59.3059 44.0259C58.7598 44.2707 58.2717 44.5817 57.8417 44.9589C57.136 45.5778 56.6387 46.2675 56.3498 47.0281C56.0513 47.7776 55.9225 48.5539 55.9634 49.3568C56.0057 50.1391 56.1894 50.9046 56.5145 51.6534C56.8299 52.3912 57.2488 53.0578 57.771 53.6533C58.3416 54.3039 58.9982 54.8302 59.741 55.2322C60.4837 55.6342 61.2567 55.8927 62.0598 56.0077C62.8533 56.1116 63.6355 56.0693 64.4066 55.8808C65.179 55.6716 65.8794 55.2914 66.508 54.7401C66.949 54.3533 67.3334 53.8796 67.6612 53.3191C67.9889 52.7585 68.211 52.1443 68.3275 51.4764C68.455 50.7988 68.4177 50.1 68.2154 49.38L69.6099 49.0348C69.8799 49.832 69.9402 50.657 69.7907 51.5099C69.6413 52.3627 69.3442 53.1695 68.8995 53.9302C68.4657 54.6813 67.9511 55.3179 67.3557 55.8402C66.5507 56.5461 65.6621 57.0232 64.6896 57.2712C63.7075 57.5083 62.717 57.5577 61.7179 57.4195C60.7202 57.2606 59.7747 56.9389 58.8814 56.4542C57.9785 55.9586 57.2031 55.3413 56.5552 54.6026Z" fill="#30291B"/>
<path d="M56.5552 54.603C55.9266 53.8863 55.4338 53.0797 55.0768 52.1833C54.7211 51.2662 54.5338 50.3186 54.5147 49.3404C54.486 48.3511 54.6739 47.3865 55.0784 46.4464C55.4733 45.4953 56.1118 44.633 56.994 43.8593C58.0415 42.9406 59.1474 42.3998 60.3117 42.2371C61.4774 42.0536 62.5654 42.1821 63.5759 42.6224L63.1594 43.9826C62.4513 43.6868 61.7737 43.5592 61.1266 43.6C60.4699 43.6297 59.863 43.7718 59.3059 44.0264C58.7598 44.2712 58.2717 44.5822 57.8417 44.9594C57.136 45.5783 56.6387 46.268 56.3498 47.0286C56.0513 47.7781 55.9225 48.5544 55.9634 49.3573C56.0057 50.1396 56.1894 50.9051 56.5145 51.6539C56.8299 52.3917 57.2488 53.0583 57.771 53.6538C58.3416 54.3043 58.9982 54.8306 59.741 55.2327C60.4837 55.6347 61.2567 55.8932 62.0598 56.0082C62.8533 56.1121 63.6355 56.0698 64.4066 55.8813C65.179 55.6721 65.8794 55.2918 66.508 54.7406C66.949 54.3538 67.3334 53.8801 67.6612 53.3195C67.9889 52.759 68.211 52.1448 68.3275 51.4768C68.455 50.7993 68.4177 50.1005 68.2154 49.3805L69.6099 49.0353C69.8799 49.8325 69.9402 50.6575 69.7907 51.5103C69.6413 52.3632 69.3442 53.17 68.8995 53.9307C68.4657 54.6818 67.9511 55.3184 67.3557 55.8407C66.5507 56.5466 65.6621 57.0236 64.6896 57.2717C63.7075 57.5088 62.717 57.5582 61.7179 57.42C60.7202 57.2611 59.7747 56.9394 58.8814 56.4547C57.9785 55.9591 57.2031 55.3418 56.5552 54.603Z" fill="#30291B"/>
<path d="M56.5552 54.6026C55.9266 53.8858 55.4338 53.0792 55.0768 52.1828C54.7211 51.2657 54.5338 50.3181 54.5147 49.3399C54.486 48.3506 54.6739 47.386 55.0784 46.4459C55.4733 45.4949 56.1118 44.6325 56.994 43.8588C58.0415 42.9401 59.1474 42.3994 60.3117 42.2366C61.4774 42.0531 62.5654 42.1816 63.5759 42.6219L63.1594 43.9821C62.4513 43.6863 61.7737 43.5588 61.1266 43.5995C60.4699 43.6292 59.863 43.7714 59.3059 44.0259C58.7598 44.2707 58.2717 44.5817 57.8417 44.9589C57.136 45.5778 56.6387 46.2675 56.3498 47.0281C56.0513 47.7776 55.9225 48.5539 55.9634 49.3568C56.0057 50.1391 56.1894 50.9046 56.5145 51.6534C56.8299 52.3912 57.2488 53.0578 57.771 53.6533C58.3416 54.3039 58.9982 54.8302 59.741 55.2322C60.4837 55.6342 61.2567 55.8927 62.0598 56.0077C62.8533 56.1116 63.6355 56.0693 64.4066 55.8808C65.179 55.6716 65.8794 55.2914 66.508 54.7401C66.949 54.3533 67.3334 53.8796 67.6612 53.3191C67.9889 52.7585 68.211 52.1443 68.3275 51.4764C68.455 50.7988 68.4177 50.1 68.2154 49.38L69.6099 49.0348C69.8799 49.832 69.9402 50.657 69.7907 51.5099C69.6413 52.3627 69.3442 53.1695 68.8995 53.9302C68.4657 54.6813 67.9511 55.3179 67.3557 55.8402C66.5507 56.5461 65.6621 57.0232 64.6896 57.2712C63.7075 57.5083 62.717 57.5577 61.7179 57.4195C60.7202 57.2606 59.7747 56.9389 58.8814 56.4542C57.9785 55.9586 57.2031 55.3413 56.5552 54.6026Z" fill="#30291B"/>
<path d="M69.0658 43.7957C68.5278 43.0086 68.1354 42.1487 67.8886 41.216C67.6456 40.2628 67.5733 39.2995 67.6719 38.3261C67.7621 37.3406 68.0644 36.4054 68.5789 35.5207C69.0851 34.6239 69.8225 33.8445 70.7912 33.1823C71.9414 32.396 73.1043 31.9919 74.2797 31.9701C75.4589 31.9279 76.5237 32.186 77.474 32.7445L76.8972 34.0448C76.2297 33.6661 75.5723 33.4582 74.9251 33.421C74.2695 33.3716 73.65 33.4399 73.0663 33.6257C72.4948 33.8032 71.9729 34.0533 71.5007 34.3761C70.7258 34.9059 70.1493 35.5309 69.7712 36.2513C69.3849 36.9596 69.1638 37.7148 69.1081 38.5168C69.0561 39.2985 69.1466 40.0806 69.3795 40.863C69.604 41.6333 69.9398 42.3454 70.3868 42.9992C70.8751 43.7136 71.4639 44.3149 72.153 44.8032C72.8421 45.2915 73.5784 45.6409 74.362 45.8514C75.1372 46.0499 75.9189 46.1018 76.707 46.0072C77.4989 45.8922 78.24 45.5988 78.9301 45.127C79.4144 44.7959 79.8529 44.3718 80.2456 43.8547C80.6382 43.3375 80.9325 42.7544 81.1283 42.1053C81.3363 41.4479 81.383 40.7497 81.2687 40.0106L82.6945 39.8354C82.8668 40.6592 82.8276 41.4855 82.5769 42.3142C82.3262 43.1429 81.9344 43.9082 81.4015 44.6101C80.8808 45.3036 80.2935 45.8739 79.6396 46.3209C78.7558 46.9251 77.8162 47.292 76.8211 47.4216C75.8176 47.539 74.8283 47.4692 73.853 47.212C72.8816 46.9345 71.9816 46.5016 71.153 45.9132C70.3161 45.3127 69.6204 44.6069 69.0658 43.7957Z" fill="#30291B"/>
<path d="M69.066 43.7953C68.528 43.0083 68.1356 42.1484 67.8888 41.2156C67.6458 40.2624 67.5736 39.2991 67.6721 38.3257C67.7623 37.3402 68.0647 36.4051 68.5792 35.5204C69.0854 34.6236 69.8228 33.8441 70.7914 33.1819C71.9417 32.3956 73.1045 31.9915 74.2799 31.9697C75.4592 31.9275 76.5239 32.1856 77.4742 32.7441L76.8975 34.0445C76.23 33.6658 75.5726 33.4578 74.9253 33.4206C74.2698 33.3713 73.6502 33.4395 73.0666 33.6253C72.495 33.8028 71.9732 34.053 71.501 34.3758C70.7261 34.9055 70.1496 35.5306 69.7715 36.251C69.3851 36.9592 69.1641 37.7144 69.1083 38.5165C69.0564 39.2981 69.1469 40.0802 69.3797 40.8626C69.6043 41.6329 69.9401 42.345 70.387 42.9988C70.8754 43.7132 71.4641 44.3145 72.1532 44.8028C72.8424 45.2911 73.5787 45.6405 74.3622 45.8511C75.1374 46.0495 75.9191 46.1014 76.7072 46.0068C77.4992 45.8918 78.2402 45.5984 78.9303 45.1266C79.4147 44.7956 79.8531 44.3714 80.2458 43.8543C80.6384 43.3372 80.9327 42.754 81.1285 42.1049C81.3365 41.4475 81.3833 40.7493 81.2689 40.0103L82.6948 39.835C82.8671 40.6588 82.8279 41.4851 82.5772 42.3138C82.3265 43.1426 81.9347 43.9079 81.4018 44.6097C80.881 45.3033 80.2937 45.8735 79.6399 46.3205C78.756 46.9247 77.8165 47.2916 76.8213 47.4212C75.8179 47.5386 74.8285 47.4688 73.8533 47.2117C72.8818 46.9341 71.9818 46.5012 71.1532 45.9128C70.3163 45.3124 69.6206 44.6065 69.066 43.7953Z" fill="#30291B"/>
<path d="M69.0658 43.7957C68.5278 43.0086 68.1354 42.1487 67.8886 41.216C67.6456 40.2628 67.5733 39.2995 67.6719 38.3261C67.7621 37.3406 68.0644 36.4054 68.5789 35.5207C69.0851 34.6239 69.8225 33.8445 70.7912 33.1823C71.9414 32.396 73.1043 31.9919 74.2797 31.9701C75.4589 31.9279 76.5237 32.186 77.474 32.7445L76.8972 34.0448C76.2297 33.6661 75.5723 33.4582 74.9251 33.421C74.2695 33.3716 73.65 33.4399 73.0663 33.6257C72.4948 33.8032 71.9729 34.0533 71.5007 34.3761C70.7258 34.9059 70.1493 35.5309 69.7712 36.2513C69.3849 36.9596 69.1638 37.7148 69.1081 38.5168C69.0561 39.2985 69.1466 40.0806 69.3795 40.863C69.604 41.6333 69.9398 42.3454 70.3868 42.9992C70.8751 43.7136 71.4639 44.3149 72.153 44.8032C72.8421 45.2915 73.5784 45.6409 74.362 45.8514C75.1372 46.0499 75.9189 46.1018 76.707 46.0072C77.4989 45.8922 78.24 45.5988 78.9301 45.127C79.4144 44.7959 79.8529 44.3718 80.2456 43.8547C80.6382 43.3375 80.9325 42.7544 81.1283 42.1053C81.3363 41.4479 81.383 40.7497 81.2687 40.0106L82.6945 39.8354C82.8668 40.6592 82.8276 41.4855 82.5769 42.3142C82.3262 43.1429 81.9344 43.9082 81.4015 44.6101C80.8808 45.3036 80.2935 45.8739 79.6396 46.3209C78.7558 46.9251 77.8162 47.292 76.8211 47.4216C75.8176 47.539 74.8283 47.4692 73.853 47.212C72.8816 46.9345 71.9816 46.5016 71.153 45.9132C70.3161 45.3127 69.6204 44.6069 69.0658 43.7957Z" fill="#30291B"/>
<path d="M83.8151 25.3959L84.963 24.79L97.9934 35.5749L96.5536 36.3347L92.484 32.9601L86.2774 36.2358L86.7865 41.4896L85.3272 42.2598L83.8151 25.3959ZM91.6079 32.0543L85.2213 26.6935L86.0044 35.0117L91.6079 32.0543Z" fill="#30291B"/>
<path d="M83.8153 25.3959L84.9633 24.79L97.9937 35.5749L96.5539 36.3347L92.4842 32.9601L86.2776 36.2358L86.7867 41.4896L85.3275 42.2598L83.8153 25.3959ZM91.6082 32.0543L85.2216 26.6935L86.0047 35.0117L91.6082 32.0543Z" fill="#30291B"/>
<path d="M83.8151 25.3959L84.963 24.79L97.9934 35.5749L96.5536 36.3347L92.484 32.9601L86.2774 36.2358L86.7865 41.4896L85.3272 42.2598L83.8151 25.3959ZM91.6079 32.0543L85.2213 26.6935L86.0044 35.0117L91.6079 32.0543Z" fill="#30291B"/>
<path d="M97.8583 35.3704L100.823 25.7313L92.8876 20.5577L94.5836 19.943L101.834 24.7098L103.84 23.9827L101.471 17.4467L102.898 16.9295L105.267 23.4655L107.253 22.7458L109.786 14.4332L111.482 13.8185L108.683 22.8827L117.135 28.3839L115.46 28.9911L107.774 24.0546L105.747 24.7892L108.221 31.6148L106.794 32.132L104.32 25.3064L102.272 26.0486L99.5337 34.7632L97.8583 35.3704Z" fill="#30291B"/>
<path d="M97.8583 35.3699L100.823 25.7308L92.8876 20.5572L94.5836 19.9425L101.834 24.7093L103.84 23.9822L101.471 17.4462L102.898 16.929L105.267 23.465L107.253 22.7453L109.786 14.4327L111.482 13.8181L108.683 22.8822L117.135 28.3834L115.46 28.9906L107.774 24.0541L105.747 24.7887L108.221 31.6143L106.794 32.1315L104.32 25.306L102.272 26.0481L99.5337 34.7627L97.8583 35.3699Z" fill="#30291B"/>
<path d="M97.8583 35.3704L100.823 25.7313L92.8876 20.5577L94.5836 19.943L101.834 24.7098L103.84 23.9827L101.471 17.4467L102.898 16.9295L105.267 23.4655L107.253 22.7458L109.786 14.4332L111.482 13.8185L108.683 22.8827L117.135 28.3839L115.46 28.9911L107.774 24.0546L105.747 24.7892L108.221 31.6148L106.794 32.132L104.32 25.3064L102.272 26.0486L99.5337 34.7632L97.8583 35.3704Z" fill="#30291B"/>
<path d="M120.168 11.9532L121.437 11.6809L131.06 25.5915L129.468 25.9331L126.464 21.5825L119.603 23.0549L118.67 28.2503L117.057 28.5964L120.168 11.9532ZM125.866 20.4732L121.17 13.5832L119.671 21.8026L125.866 20.4732Z" fill="#30291B"/>
<path d="M120.168 11.9536L121.437 11.6812L131.06 25.5919L129.468 25.9335L126.464 21.5828L119.603 23.0553L118.67 28.2506L117.057 28.5968L120.168 11.9536ZM125.866 20.4736L121.17 13.5836L119.671 21.803L125.866 20.4736Z" fill="#30291B"/>
<path d="M120.168 11.9532L121.437 11.6809L131.06 25.5915L129.468 25.9331L126.464 21.5825L119.603 23.0549L118.67 28.2503L117.057 28.5964L120.168 11.9532ZM125.866 20.4732L121.17 13.5832L119.671 21.8026L125.866 20.4732Z" fill="#30291B"/>
<defs>
<clipPath id="clip0_1_292">
<rect width="130" height="130" fill="white" transform="translate(104.571 71.0969) rotate(15)"/>
</clipPath>
</defs>
</svg>
